%TF.GenerationSoftware,KiCad,Pcbnew,6.0.7+dfsg-1~bpo11+1*%
%TF.CreationDate,2023-01-24T09:36:58+00:00*%
%TF.ProjectId,aws-iot-expresslink-demo-badge,6177732d-696f-4742-9d65-787072657373,1*%
%TF.SameCoordinates,Original*%
%TF.FileFunction,Drillmap*%
%TF.FilePolarity,Positive*%
%FSLAX45Y45*%
G04 Gerber Fmt 4.5, Leading zero omitted, Abs format (unit mm)*
G04 Created by KiCad (PCBNEW 6.0.7+dfsg-1~bpo11+1) date 2023-01-24 09:36:58*
%MOMM*%
%LPD*%
G01*
G04 APERTURE LIST*
%ADD10C,0.100000*%
%ADD11C,0.200000*%
G04 APERTURE END LIST*
D10*
X13857102Y-8351809D02*
G75*
G03*
X8322177Y-8351809I-2767462J-10977177D01*
G01*
X8128000Y-16781160D02*
G75*
G03*
X8239678Y-16946243I177660J-130D01*
G01*
X14051278Y-8590280D02*
G75*
G03*
X13857102Y-8351809I-245918J-1950D01*
G01*
X14051280Y-8590280D02*
X14051280Y-16781160D01*
X8322178Y-8351810D02*
G75*
G03*
X8128000Y-8590280I51652J-240350D01*
G01*
X8239678Y-16946243D02*
G75*
G03*
X13939602Y-16946243I2849962J10525904D01*
G01*
X13939604Y-16946247D02*
G75*
G03*
X14051280Y-16781160I-67144J165737D01*
G01*
X8128000Y-16781160D02*
X8128000Y-8590280D01*
D11*
X8380619Y-17640720D02*
X8380619Y-17440720D01*
X8428238Y-17440720D01*
X8456810Y-17450243D01*
X8475857Y-17469291D01*
X8485381Y-17488339D01*
X8494905Y-17526434D01*
X8494905Y-17555005D01*
X8485381Y-17593101D01*
X8475857Y-17612148D01*
X8456810Y-17631196D01*
X8428238Y-17640720D01*
X8380619Y-17640720D01*
X8580619Y-17640720D02*
X8580619Y-17507386D01*
X8580619Y-17545481D02*
X8590143Y-17526434D01*
X8599667Y-17516910D01*
X8618714Y-17507386D01*
X8637762Y-17507386D01*
X8704429Y-17640720D02*
X8704429Y-17507386D01*
X8704429Y-17440720D02*
X8694905Y-17450243D01*
X8704429Y-17459767D01*
X8713952Y-17450243D01*
X8704429Y-17440720D01*
X8704429Y-17459767D01*
X8828238Y-17640720D02*
X8809190Y-17631196D01*
X8799667Y-17612148D01*
X8799667Y-17440720D01*
X8933000Y-17640720D02*
X8913952Y-17631196D01*
X8904429Y-17612148D01*
X8904429Y-17440720D01*
X9161571Y-17640720D02*
X9161571Y-17440720D01*
X9228238Y-17583577D01*
X9294905Y-17440720D01*
X9294905Y-17640720D01*
X9475857Y-17640720D02*
X9475857Y-17535958D01*
X9466333Y-17516910D01*
X9447286Y-17507386D01*
X9409190Y-17507386D01*
X9390143Y-17516910D01*
X9475857Y-17631196D02*
X9456810Y-17640720D01*
X9409190Y-17640720D01*
X9390143Y-17631196D01*
X9380619Y-17612148D01*
X9380619Y-17593101D01*
X9390143Y-17574053D01*
X9409190Y-17564529D01*
X9456810Y-17564529D01*
X9475857Y-17555005D01*
X9571095Y-17507386D02*
X9571095Y-17707386D01*
X9571095Y-17516910D02*
X9590143Y-17507386D01*
X9628238Y-17507386D01*
X9647286Y-17516910D01*
X9656810Y-17526434D01*
X9666333Y-17545481D01*
X9666333Y-17602624D01*
X9656810Y-17621672D01*
X9647286Y-17631196D01*
X9628238Y-17640720D01*
X9590143Y-17640720D01*
X9571095Y-17631196D01*
X9752048Y-17621672D02*
X9761571Y-17631196D01*
X9752048Y-17640720D01*
X9742524Y-17631196D01*
X9752048Y-17621672D01*
X9752048Y-17640720D01*
X9752048Y-17516910D02*
X9761571Y-17526434D01*
X9752048Y-17535958D01*
X9742524Y-17526434D01*
X9752048Y-17516910D01*
X9752048Y-17535958D01*
M02*
