G04 #@! TF.GenerationSoftware,KiCad,Pcbnew,6.0.7+dfsg-1~bpo11+1*
G04 #@! TF.CreationDate,2023-01-24T09:36:57+00:00*
G04 #@! TF.ProjectId,aws-iot-expresslink-demo-badge,6177732d-696f-4742-9d65-787072657373,1*
G04 #@! TF.SameCoordinates,Original*
G04 #@! TF.FileFunction,Paste,Bot*
G04 #@! TF.FilePolarity,Positive*
%FSLAX46Y46*%
G04 Gerber Fmt 4.6, Leading zero omitted, Abs format (unit mm)*
G04 Created by KiCad (PCBNEW 6.0.7+dfsg-1~bpo11+1) date 2023-01-24 09:36:57*
%MOMM*%
%LPD*%
G01*
G04 APERTURE LIST*
%ADD10R,1.000000X0.600000*%
%ADD11R,1.600000X0.850000*%
%ADD12R,1.500000X1.000000*%
%ADD13R,1.000000X1.800000*%
%ADD14R,0.450000X0.600000*%
G04 APERTURE END LIST*
G36*
G01*
X117580800Y-129268500D02*
X117580800Y-131843500D01*
G75*
G02*
X117493300Y-131931000I-87500J0D01*
G01*
X117318300Y-131931000D01*
G75*
G02*
X117230800Y-131843500I0J87500D01*
G01*
X117230800Y-129268500D01*
G75*
G02*
X117318300Y-129181000I87500J0D01*
G01*
X117493300Y-129181000D01*
G75*
G02*
X117580800Y-129268500I0J-87500D01*
G01*
G37*
G36*
G01*
X116880800Y-129268500D02*
X116880800Y-131843500D01*
G75*
G02*
X116793300Y-131931000I-87500J0D01*
G01*
X116618300Y-131931000D01*
G75*
G02*
X116530800Y-131843500I0J87500D01*
G01*
X116530800Y-129268500D01*
G75*
G02*
X116618300Y-129181000I87500J0D01*
G01*
X116793300Y-129181000D01*
G75*
G02*
X116880800Y-129268500I0J-87500D01*
G01*
G37*
G36*
G01*
X116180800Y-129268500D02*
X116180800Y-131843500D01*
G75*
G02*
X116093300Y-131931000I-87500J0D01*
G01*
X115918300Y-131931000D01*
G75*
G02*
X115830800Y-131843500I0J87500D01*
G01*
X115830800Y-129268500D01*
G75*
G02*
X115918300Y-129181000I87500J0D01*
G01*
X116093300Y-129181000D01*
G75*
G02*
X116180800Y-129268500I0J-87500D01*
G01*
G37*
G36*
G01*
X115480800Y-129268500D02*
X115480800Y-131843500D01*
G75*
G02*
X115393300Y-131931000I-87500J0D01*
G01*
X115218300Y-131931000D01*
G75*
G02*
X115130800Y-131843500I0J87500D01*
G01*
X115130800Y-129268500D01*
G75*
G02*
X115218300Y-129181000I87500J0D01*
G01*
X115393300Y-129181000D01*
G75*
G02*
X115480800Y-129268500I0J-87500D01*
G01*
G37*
G36*
G01*
X114780800Y-129268500D02*
X114780800Y-131843500D01*
G75*
G02*
X114693300Y-131931000I-87500J0D01*
G01*
X114518300Y-131931000D01*
G75*
G02*
X114430800Y-131843500I0J87500D01*
G01*
X114430800Y-129268500D01*
G75*
G02*
X114518300Y-129181000I87500J0D01*
G01*
X114693300Y-129181000D01*
G75*
G02*
X114780800Y-129268500I0J-87500D01*
G01*
G37*
G36*
G01*
X114080800Y-129268500D02*
X114080800Y-131843500D01*
G75*
G02*
X113993300Y-131931000I-87500J0D01*
G01*
X113818300Y-131931000D01*
G75*
G02*
X113730800Y-131843500I0J87500D01*
G01*
X113730800Y-129268500D01*
G75*
G02*
X113818300Y-129181000I87500J0D01*
G01*
X113993300Y-129181000D01*
G75*
G02*
X114080800Y-129268500I0J-87500D01*
G01*
G37*
G36*
G01*
X113380800Y-129268500D02*
X113380800Y-131843500D01*
G75*
G02*
X113293300Y-131931000I-87500J0D01*
G01*
X113118300Y-131931000D01*
G75*
G02*
X113030800Y-131843500I0J87500D01*
G01*
X113030800Y-129268500D01*
G75*
G02*
X113118300Y-129181000I87500J0D01*
G01*
X113293300Y-129181000D01*
G75*
G02*
X113380800Y-129268500I0J-87500D01*
G01*
G37*
G36*
G01*
X112680800Y-129268500D02*
X112680800Y-131843500D01*
G75*
G02*
X112593300Y-131931000I-87500J0D01*
G01*
X112418300Y-131931000D01*
G75*
G02*
X112330800Y-131843500I0J87500D01*
G01*
X112330800Y-129268500D01*
G75*
G02*
X112418300Y-129181000I87500J0D01*
G01*
X112593300Y-129181000D01*
G75*
G02*
X112680800Y-129268500I0J-87500D01*
G01*
G37*
G36*
G01*
X111980800Y-129268500D02*
X111980800Y-131843500D01*
G75*
G02*
X111893300Y-131931000I-87500J0D01*
G01*
X111718300Y-131931000D01*
G75*
G02*
X111630800Y-131843500I0J87500D01*
G01*
X111630800Y-129268500D01*
G75*
G02*
X111718300Y-129181000I87500J0D01*
G01*
X111893300Y-129181000D01*
G75*
G02*
X111980800Y-129268500I0J-87500D01*
G01*
G37*
G36*
G01*
X111280800Y-129268500D02*
X111280800Y-131843500D01*
G75*
G02*
X111193300Y-131931000I-87500J0D01*
G01*
X111018300Y-131931000D01*
G75*
G02*
X110930800Y-131843500I0J87500D01*
G01*
X110930800Y-129268500D01*
G75*
G02*
X111018300Y-129181000I87500J0D01*
G01*
X111193300Y-129181000D01*
G75*
G02*
X111280800Y-129268500I0J-87500D01*
G01*
G37*
G36*
G01*
X110580800Y-129268500D02*
X110580800Y-131843500D01*
G75*
G02*
X110493300Y-131931000I-87500J0D01*
G01*
X110318300Y-131931000D01*
G75*
G02*
X110230800Y-131843500I0J87500D01*
G01*
X110230800Y-129268500D01*
G75*
G02*
X110318300Y-129181000I87500J0D01*
G01*
X110493300Y-129181000D01*
G75*
G02*
X110580800Y-129268500I0J-87500D01*
G01*
G37*
G36*
G01*
X109880800Y-129268500D02*
X109880800Y-131843500D01*
G75*
G02*
X109793300Y-131931000I-87500J0D01*
G01*
X109618300Y-131931000D01*
G75*
G02*
X109530800Y-131843500I0J87500D01*
G01*
X109530800Y-129268500D01*
G75*
G02*
X109618300Y-129181000I87500J0D01*
G01*
X109793300Y-129181000D01*
G75*
G02*
X109880800Y-129268500I0J-87500D01*
G01*
G37*
G36*
G01*
X125152400Y-135632000D02*
X125152400Y-135132000D01*
G75*
G02*
X125377400Y-134907000I225000J0D01*
G01*
X125827400Y-134907000D01*
G75*
G02*
X126052400Y-135132000I0J-225000D01*
G01*
X126052400Y-135632000D01*
G75*
G02*
X125827400Y-135857000I-225000J0D01*
G01*
X125377400Y-135857000D01*
G75*
G02*
X125152400Y-135632000I0J225000D01*
G01*
G37*
G36*
G01*
X126702400Y-135632000D02*
X126702400Y-135132000D01*
G75*
G02*
X126927400Y-134907000I225000J0D01*
G01*
X127377400Y-134907000D01*
G75*
G02*
X127602400Y-135132000I0J-225000D01*
G01*
X127602400Y-135632000D01*
G75*
G02*
X127377400Y-135857000I-225000J0D01*
G01*
X126927400Y-135857000D01*
G75*
G02*
X126702400Y-135632000I0J225000D01*
G01*
G37*
G36*
G01*
X131506800Y-133748600D02*
X131506800Y-134048600D01*
G75*
G02*
X131356800Y-134198600I-150000J0D01*
G01*
X130181800Y-134198600D01*
G75*
G02*
X130031800Y-134048600I0J150000D01*
G01*
X130031800Y-133748600D01*
G75*
G02*
X130181800Y-133598600I150000J0D01*
G01*
X131356800Y-133598600D01*
G75*
G02*
X131506800Y-133748600I0J-150000D01*
G01*
G37*
G36*
G01*
X131506800Y-135648600D02*
X131506800Y-135948600D01*
G75*
G02*
X131356800Y-136098600I-150000J0D01*
G01*
X130181800Y-136098600D01*
G75*
G02*
X130031800Y-135948600I0J150000D01*
G01*
X130031800Y-135648600D01*
G75*
G02*
X130181800Y-135498600I150000J0D01*
G01*
X131356800Y-135498600D01*
G75*
G02*
X131506800Y-135648600I0J-150000D01*
G01*
G37*
G36*
G01*
X129631800Y-134698600D02*
X129631800Y-134998600D01*
G75*
G02*
X129481800Y-135148600I-150000J0D01*
G01*
X128306800Y-135148600D01*
G75*
G02*
X128156800Y-134998600I0J150000D01*
G01*
X128156800Y-134698600D01*
G75*
G02*
X128306800Y-134548600I150000J0D01*
G01*
X129481800Y-134548600D01*
G75*
G02*
X129631800Y-134698600I0J-150000D01*
G01*
G37*
G36*
G01*
X115235800Y-98430800D02*
X114735800Y-98430800D01*
G75*
G02*
X114510800Y-98205800I0J225000D01*
G01*
X114510800Y-97755800D01*
G75*
G02*
X114735800Y-97530800I225000J0D01*
G01*
X115235800Y-97530800D01*
G75*
G02*
X115460800Y-97755800I0J-225000D01*
G01*
X115460800Y-98205800D01*
G75*
G02*
X115235800Y-98430800I-225000J0D01*
G01*
G37*
G36*
G01*
X115235800Y-96880800D02*
X114735800Y-96880800D01*
G75*
G02*
X114510800Y-96655800I0J225000D01*
G01*
X114510800Y-96205800D01*
G75*
G02*
X114735800Y-95980800I225000J0D01*
G01*
X115235800Y-95980800D01*
G75*
G02*
X115460800Y-96205800I0J-225000D01*
G01*
X115460800Y-96655800D01*
G75*
G02*
X115235800Y-96880800I-225000J0D01*
G01*
G37*
D10*
X127828800Y-97855800D03*
D11*
X127078800Y-98080800D03*
D12*
X126378800Y-98805800D03*
D11*
X127078800Y-96330800D03*
D10*
X127828800Y-96555800D03*
D12*
X126378800Y-95605800D03*
D10*
X129828800Y-96555800D03*
D11*
X130578800Y-96330800D03*
D12*
X131278800Y-95605800D03*
D10*
X129828800Y-97855800D03*
D12*
X131278800Y-98805800D03*
D11*
X130578800Y-98080800D03*
G36*
G01*
X92870928Y-90977000D02*
X93370928Y-90977000D01*
G75*
G02*
X93595928Y-91202000I0J-225000D01*
G01*
X93595928Y-91652000D01*
G75*
G02*
X93370928Y-91877000I-225000J0D01*
G01*
X92870928Y-91877000D01*
G75*
G02*
X92645928Y-91652000I0J225000D01*
G01*
X92645928Y-91202000D01*
G75*
G02*
X92870928Y-90977000I225000J0D01*
G01*
G37*
G36*
G01*
X92870928Y-92527000D02*
X93370928Y-92527000D01*
G75*
G02*
X93595928Y-92752000I0J-225000D01*
G01*
X93595928Y-93202000D01*
G75*
G02*
X93370928Y-93427000I-225000J0D01*
G01*
X92870928Y-93427000D01*
G75*
G02*
X92645928Y-93202000I0J225000D01*
G01*
X92645928Y-92752000D01*
G75*
G02*
X92870928Y-92527000I225000J0D01*
G01*
G37*
G36*
G01*
X95279800Y-134665000D02*
X95829800Y-134665000D01*
G75*
G02*
X96029800Y-134865000I0J-200000D01*
G01*
X96029800Y-135265000D01*
G75*
G02*
X95829800Y-135465000I-200000J0D01*
G01*
X95279800Y-135465000D01*
G75*
G02*
X95079800Y-135265000I0J200000D01*
G01*
X95079800Y-134865000D01*
G75*
G02*
X95279800Y-134665000I200000J0D01*
G01*
G37*
G36*
G01*
X95279800Y-136315000D02*
X95829800Y-136315000D01*
G75*
G02*
X96029800Y-136515000I0J-200000D01*
G01*
X96029800Y-136915000D01*
G75*
G02*
X95829800Y-137115000I-200000J0D01*
G01*
X95279800Y-137115000D01*
G75*
G02*
X95079800Y-136915000I0J200000D01*
G01*
X95079800Y-136515000D01*
G75*
G02*
X95279800Y-136315000I200000J0D01*
G01*
G37*
G36*
G01*
X119131800Y-90250600D02*
X119131800Y-90800600D01*
G75*
G02*
X118931800Y-91000600I-200000J0D01*
G01*
X118531800Y-91000600D01*
G75*
G02*
X118331800Y-90800600I0J200000D01*
G01*
X118331800Y-90250600D01*
G75*
G02*
X118531800Y-90050600I200000J0D01*
G01*
X118931800Y-90050600D01*
G75*
G02*
X119131800Y-90250600I0J-200000D01*
G01*
G37*
G36*
G01*
X117481800Y-90250600D02*
X117481800Y-90800600D01*
G75*
G02*
X117281800Y-91000600I-200000J0D01*
G01*
X116881800Y-91000600D01*
G75*
G02*
X116681800Y-90800600I0J200000D01*
G01*
X116681800Y-90250600D01*
G75*
G02*
X116881800Y-90050600I200000J0D01*
G01*
X117281800Y-90050600D01*
G75*
G02*
X117481800Y-90250600I0J-200000D01*
G01*
G37*
G36*
G01*
X102610200Y-89353200D02*
X102610200Y-88853200D01*
G75*
G02*
X102835200Y-88628200I225000J0D01*
G01*
X103285200Y-88628200D01*
G75*
G02*
X103510200Y-88853200I0J-225000D01*
G01*
X103510200Y-89353200D01*
G75*
G02*
X103285200Y-89578200I-225000J0D01*
G01*
X102835200Y-89578200D01*
G75*
G02*
X102610200Y-89353200I0J225000D01*
G01*
G37*
G36*
G01*
X104160200Y-89353200D02*
X104160200Y-88853200D01*
G75*
G02*
X104385200Y-88628200I225000J0D01*
G01*
X104835200Y-88628200D01*
G75*
G02*
X105060200Y-88853200I0J-225000D01*
G01*
X105060200Y-89353200D01*
G75*
G02*
X104835200Y-89578200I-225000J0D01*
G01*
X104385200Y-89578200D01*
G75*
G02*
X104160200Y-89353200I0J225000D01*
G01*
G37*
D13*
X111892400Y-89789000D03*
X109392400Y-89789000D03*
G36*
G01*
X97074800Y-98430800D02*
X96574800Y-98430800D01*
G75*
G02*
X96349800Y-98205800I0J225000D01*
G01*
X96349800Y-97755800D01*
G75*
G02*
X96574800Y-97530800I225000J0D01*
G01*
X97074800Y-97530800D01*
G75*
G02*
X97299800Y-97755800I0J-225000D01*
G01*
X97299800Y-98205800D01*
G75*
G02*
X97074800Y-98430800I-225000J0D01*
G01*
G37*
G36*
G01*
X97074800Y-96880800D02*
X96574800Y-96880800D01*
G75*
G02*
X96349800Y-96655800I0J225000D01*
G01*
X96349800Y-96205800D01*
G75*
G02*
X96574800Y-95980800I225000J0D01*
G01*
X97074800Y-95980800D01*
G75*
G02*
X97299800Y-96205800I0J-225000D01*
G01*
X97299800Y-96655800D01*
G75*
G02*
X97074800Y-96880800I-225000J0D01*
G01*
G37*
G36*
G01*
X100633400Y-91102000D02*
X100633400Y-91402000D01*
G75*
G02*
X100483400Y-91552000I-150000J0D01*
G01*
X99308400Y-91552000D01*
G75*
G02*
X99158400Y-91402000I0J150000D01*
G01*
X99158400Y-91102000D01*
G75*
G02*
X99308400Y-90952000I150000J0D01*
G01*
X100483400Y-90952000D01*
G75*
G02*
X100633400Y-91102000I0J-150000D01*
G01*
G37*
G36*
G01*
X100633400Y-93002000D02*
X100633400Y-93302000D01*
G75*
G02*
X100483400Y-93452000I-150000J0D01*
G01*
X99308400Y-93452000D01*
G75*
G02*
X99158400Y-93302000I0J150000D01*
G01*
X99158400Y-93002000D01*
G75*
G02*
X99308400Y-92852000I150000J0D01*
G01*
X100483400Y-92852000D01*
G75*
G02*
X100633400Y-93002000I0J-150000D01*
G01*
G37*
G36*
G01*
X98758400Y-92052000D02*
X98758400Y-92352000D01*
G75*
G02*
X98608400Y-92502000I-150000J0D01*
G01*
X97433400Y-92502000D01*
G75*
G02*
X97283400Y-92352000I0J150000D01*
G01*
X97283400Y-92052000D01*
G75*
G02*
X97433400Y-91902000I150000J0D01*
G01*
X98608400Y-91902000D01*
G75*
G02*
X98758400Y-92052000I0J-150000D01*
G01*
G37*
G36*
G01*
X96828800Y-134665000D02*
X97328800Y-134665000D01*
G75*
G02*
X97553800Y-134890000I0J-225000D01*
G01*
X97553800Y-135340000D01*
G75*
G02*
X97328800Y-135565000I-225000J0D01*
G01*
X96828800Y-135565000D01*
G75*
G02*
X96603800Y-135340000I0J225000D01*
G01*
X96603800Y-134890000D01*
G75*
G02*
X96828800Y-134665000I225000J0D01*
G01*
G37*
G36*
G01*
X96828800Y-136215000D02*
X97328800Y-136215000D01*
G75*
G02*
X97553800Y-136440000I0J-225000D01*
G01*
X97553800Y-136890000D01*
G75*
G02*
X97328800Y-137115000I-225000J0D01*
G01*
X96828800Y-137115000D01*
G75*
G02*
X96603800Y-136890000I0J225000D01*
G01*
X96603800Y-136440000D01*
G75*
G02*
X96828800Y-136215000I225000J0D01*
G01*
G37*
D11*
X117934800Y-98080800D03*
D12*
X117234800Y-98805800D03*
D10*
X118684800Y-97855800D03*
X118684800Y-96555800D03*
D12*
X117234800Y-95605800D03*
D11*
X117934800Y-96330800D03*
X121434800Y-96330800D03*
D12*
X122134800Y-95605800D03*
D10*
X120684800Y-96555800D03*
X120684800Y-97855800D03*
D12*
X122134800Y-98805800D03*
D11*
X121434800Y-98080800D03*
G36*
G01*
X100437400Y-89133000D02*
X100437400Y-89683000D01*
G75*
G02*
X100237400Y-89883000I-200000J0D01*
G01*
X99837400Y-89883000D01*
G75*
G02*
X99637400Y-89683000I0J200000D01*
G01*
X99637400Y-89133000D01*
G75*
G02*
X99837400Y-88933000I200000J0D01*
G01*
X100237400Y-88933000D01*
G75*
G02*
X100437400Y-89133000I0J-200000D01*
G01*
G37*
G36*
G01*
X98787400Y-89133000D02*
X98787400Y-89683000D01*
G75*
G02*
X98587400Y-89883000I-200000J0D01*
G01*
X98187400Y-89883000D01*
G75*
G02*
X97987400Y-89683000I0J200000D01*
G01*
X97987400Y-89133000D01*
G75*
G02*
X98187400Y-88933000I200000J0D01*
G01*
X98587400Y-88933000D01*
G75*
G02*
X98787400Y-89133000I0J-200000D01*
G01*
G37*
G36*
G01*
X132799200Y-136099000D02*
X132249200Y-136099000D01*
G75*
G02*
X132049200Y-135899000I0J200000D01*
G01*
X132049200Y-135499000D01*
G75*
G02*
X132249200Y-135299000I200000J0D01*
G01*
X132799200Y-135299000D01*
G75*
G02*
X132999200Y-135499000I0J-200000D01*
G01*
X132999200Y-135899000D01*
G75*
G02*
X132799200Y-136099000I-200000J0D01*
G01*
G37*
G36*
G01*
X132799200Y-134449000D02*
X132249200Y-134449000D01*
G75*
G02*
X132049200Y-134249000I0J200000D01*
G01*
X132049200Y-133849000D01*
G75*
G02*
X132249200Y-133649000I200000J0D01*
G01*
X132799200Y-133649000D01*
G75*
G02*
X132999200Y-133849000I0J-200000D01*
G01*
X132999200Y-134249000D01*
G75*
G02*
X132799200Y-134449000I-200000J0D01*
G01*
G37*
G36*
G01*
X102610200Y-93772800D02*
X102610200Y-93272800D01*
G75*
G02*
X102835200Y-93047800I225000J0D01*
G01*
X103285200Y-93047800D01*
G75*
G02*
X103510200Y-93272800I0J-225000D01*
G01*
X103510200Y-93772800D01*
G75*
G02*
X103285200Y-93997800I-225000J0D01*
G01*
X102835200Y-93997800D01*
G75*
G02*
X102610200Y-93772800I0J225000D01*
G01*
G37*
G36*
G01*
X104160200Y-93772800D02*
X104160200Y-93272800D01*
G75*
G02*
X104385200Y-93047800I225000J0D01*
G01*
X104835200Y-93047800D01*
G75*
G02*
X105060200Y-93272800I0J-225000D01*
G01*
X105060200Y-93772800D01*
G75*
G02*
X104835200Y-93997800I-225000J0D01*
G01*
X104385200Y-93997800D01*
G75*
G02*
X104160200Y-93772800I0J225000D01*
G01*
G37*
G36*
G01*
X102610200Y-87880000D02*
X102610200Y-87380000D01*
G75*
G02*
X102835200Y-87155000I225000J0D01*
G01*
X103285200Y-87155000D01*
G75*
G02*
X103510200Y-87380000I0J-225000D01*
G01*
X103510200Y-87880000D01*
G75*
G02*
X103285200Y-88105000I-225000J0D01*
G01*
X102835200Y-88105000D01*
G75*
G02*
X102610200Y-87880000I0J225000D01*
G01*
G37*
G36*
G01*
X104160200Y-87880000D02*
X104160200Y-87380000D01*
G75*
G02*
X104385200Y-87155000I225000J0D01*
G01*
X104835200Y-87155000D01*
G75*
G02*
X105060200Y-87380000I0J-225000D01*
G01*
X105060200Y-87880000D01*
G75*
G02*
X104835200Y-88105000I-225000J0D01*
G01*
X104385200Y-88105000D01*
G75*
G02*
X104160200Y-87880000I0J225000D01*
G01*
G37*
G36*
G01*
X111867400Y-92943000D02*
X111867400Y-93493000D01*
G75*
G02*
X111667400Y-93693000I-200000J0D01*
G01*
X111267400Y-93693000D01*
G75*
G02*
X111067400Y-93493000I0J200000D01*
G01*
X111067400Y-92943000D01*
G75*
G02*
X111267400Y-92743000I200000J0D01*
G01*
X111667400Y-92743000D01*
G75*
G02*
X111867400Y-92943000I0J-200000D01*
G01*
G37*
G36*
G01*
X110217400Y-92943000D02*
X110217400Y-93493000D01*
G75*
G02*
X110017400Y-93693000I-200000J0D01*
G01*
X109617400Y-93693000D01*
G75*
G02*
X109417400Y-93493000I0J200000D01*
G01*
X109417400Y-92943000D01*
G75*
G02*
X109617400Y-92743000I200000J0D01*
G01*
X110017400Y-92743000D01*
G75*
G02*
X110217400Y-92943000I0J-200000D01*
G01*
G37*
G36*
G01*
X133523800Y-98430800D02*
X133023800Y-98430800D01*
G75*
G02*
X132798800Y-98205800I0J225000D01*
G01*
X132798800Y-97755800D01*
G75*
G02*
X133023800Y-97530800I225000J0D01*
G01*
X133523800Y-97530800D01*
G75*
G02*
X133748800Y-97755800I0J-225000D01*
G01*
X133748800Y-98205800D01*
G75*
G02*
X133523800Y-98430800I-225000J0D01*
G01*
G37*
G36*
G01*
X133523800Y-96880800D02*
X133023800Y-96880800D01*
G75*
G02*
X132798800Y-96655800I0J225000D01*
G01*
X132798800Y-96205800D01*
G75*
G02*
X133023800Y-95980800I225000J0D01*
G01*
X133523800Y-95980800D01*
G75*
G02*
X133748800Y-96205800I0J-225000D01*
G01*
X133748800Y-96655800D01*
G75*
G02*
X133523800Y-96880800I-225000J0D01*
G01*
G37*
G36*
G01*
X137419800Y-101553600D02*
X137419800Y-102103600D01*
G75*
G02*
X137219800Y-102303600I-200000J0D01*
G01*
X136819800Y-102303600D01*
G75*
G02*
X136619800Y-102103600I0J200000D01*
G01*
X136619800Y-101553600D01*
G75*
G02*
X136819800Y-101353600I200000J0D01*
G01*
X137219800Y-101353600D01*
G75*
G02*
X137419800Y-101553600I0J-200000D01*
G01*
G37*
G36*
G01*
X135769800Y-101553600D02*
X135769800Y-102103600D01*
G75*
G02*
X135569800Y-102303600I-200000J0D01*
G01*
X135169800Y-102303600D01*
G75*
G02*
X134969800Y-102103600I0J200000D01*
G01*
X134969800Y-101553600D01*
G75*
G02*
X135169800Y-101353600I200000J0D01*
G01*
X135569800Y-101353600D01*
G75*
G02*
X135769800Y-101553600I0J-200000D01*
G01*
G37*
G36*
G01*
X105060200Y-91774600D02*
X105060200Y-92324600D01*
G75*
G02*
X104860200Y-92524600I-200000J0D01*
G01*
X104460200Y-92524600D01*
G75*
G02*
X104260200Y-92324600I0J200000D01*
G01*
X104260200Y-91774600D01*
G75*
G02*
X104460200Y-91574600I200000J0D01*
G01*
X104860200Y-91574600D01*
G75*
G02*
X105060200Y-91774600I0J-200000D01*
G01*
G37*
G36*
G01*
X103410200Y-91774600D02*
X103410200Y-92324600D01*
G75*
G02*
X103210200Y-92524600I-200000J0D01*
G01*
X102810200Y-92524600D01*
G75*
G02*
X102610200Y-92324600I0J200000D01*
G01*
X102610200Y-91774600D01*
G75*
G02*
X102810200Y-91574600I200000J0D01*
G01*
X103210200Y-91574600D01*
G75*
G02*
X103410200Y-91774600I0J-200000D01*
G01*
G37*
G36*
G01*
X106091800Y-98430800D02*
X105591800Y-98430800D01*
G75*
G02*
X105366800Y-98205800I0J225000D01*
G01*
X105366800Y-97755800D01*
G75*
G02*
X105591800Y-97530800I225000J0D01*
G01*
X106091800Y-97530800D01*
G75*
G02*
X106316800Y-97755800I0J-225000D01*
G01*
X106316800Y-98205800D01*
G75*
G02*
X106091800Y-98430800I-225000J0D01*
G01*
G37*
G36*
G01*
X106091800Y-96880800D02*
X105591800Y-96880800D01*
G75*
G02*
X105366800Y-96655800I0J225000D01*
G01*
X105366800Y-96205800D01*
G75*
G02*
X105591800Y-95980800I225000J0D01*
G01*
X106091800Y-95980800D01*
G75*
G02*
X106316800Y-96205800I0J-225000D01*
G01*
X106316800Y-96655800D01*
G75*
G02*
X106091800Y-96880800I-225000J0D01*
G01*
G37*
G36*
G01*
X107971400Y-91649000D02*
X107471400Y-91649000D01*
G75*
G02*
X107246400Y-91424000I0J225000D01*
G01*
X107246400Y-90974000D01*
G75*
G02*
X107471400Y-90749000I225000J0D01*
G01*
X107971400Y-90749000D01*
G75*
G02*
X108196400Y-90974000I0J-225000D01*
G01*
X108196400Y-91424000D01*
G75*
G02*
X107971400Y-91649000I-225000J0D01*
G01*
G37*
G36*
G01*
X107971400Y-90099000D02*
X107471400Y-90099000D01*
G75*
G02*
X107246400Y-89874000I0J225000D01*
G01*
X107246400Y-89424000D01*
G75*
G02*
X107471400Y-89199000I225000J0D01*
G01*
X107971400Y-89199000D01*
G75*
G02*
X108196400Y-89424000I0J-225000D01*
G01*
X108196400Y-89874000D01*
G75*
G02*
X107971400Y-90099000I-225000J0D01*
G01*
G37*
G36*
G01*
X105060200Y-90301400D02*
X105060200Y-90851400D01*
G75*
G02*
X104860200Y-91051400I-200000J0D01*
G01*
X104460200Y-91051400D01*
G75*
G02*
X104260200Y-90851400I0J200000D01*
G01*
X104260200Y-90301400D01*
G75*
G02*
X104460200Y-90101400I200000J0D01*
G01*
X104860200Y-90101400D01*
G75*
G02*
X105060200Y-90301400I0J-200000D01*
G01*
G37*
G36*
G01*
X103410200Y-90301400D02*
X103410200Y-90851400D01*
G75*
G02*
X103210200Y-91051400I-200000J0D01*
G01*
X102810200Y-91051400D01*
G75*
G02*
X102610200Y-90851400I0J200000D01*
G01*
X102610200Y-90301400D01*
G75*
G02*
X102810200Y-90101400I200000J0D01*
G01*
X103210200Y-90101400D01*
G75*
G02*
X103410200Y-90301400I0J-200000D01*
G01*
G37*
G36*
G01*
X95889400Y-90977000D02*
X96439400Y-90977000D01*
G75*
G02*
X96639400Y-91177000I0J-200000D01*
G01*
X96639400Y-91577000D01*
G75*
G02*
X96439400Y-91777000I-200000J0D01*
G01*
X95889400Y-91777000D01*
G75*
G02*
X95689400Y-91577000I0J200000D01*
G01*
X95689400Y-91177000D01*
G75*
G02*
X95889400Y-90977000I200000J0D01*
G01*
G37*
G36*
G01*
X95889400Y-92627000D02*
X96439400Y-92627000D01*
G75*
G02*
X96639400Y-92827000I0J-200000D01*
G01*
X96639400Y-93227000D01*
G75*
G02*
X96439400Y-93427000I-200000J0D01*
G01*
X95889400Y-93427000D01*
G75*
G02*
X95689400Y-93227000I0J200000D01*
G01*
X95689400Y-92827000D01*
G75*
G02*
X95889400Y-92627000I200000J0D01*
G01*
G37*
G36*
G01*
X134992200Y-92434000D02*
X136242200Y-92434000D01*
G75*
G02*
X136392200Y-92584000I0J-150000D01*
G01*
X136392200Y-92884000D01*
G75*
G02*
X136242200Y-93034000I-150000J0D01*
G01*
X134992200Y-93034000D01*
G75*
G02*
X134842200Y-92884000I0J150000D01*
G01*
X134842200Y-92584000D01*
G75*
G02*
X134992200Y-92434000I150000J0D01*
G01*
G37*
G36*
G01*
X134992200Y-93434000D02*
X136242200Y-93434000D01*
G75*
G02*
X136392200Y-93584000I0J-150000D01*
G01*
X136392200Y-93884000D01*
G75*
G02*
X136242200Y-94034000I-150000J0D01*
G01*
X134992200Y-94034000D01*
G75*
G02*
X134842200Y-93884000I0J150000D01*
G01*
X134842200Y-93584000D01*
G75*
G02*
X134992200Y-93434000I150000J0D01*
G01*
G37*
G36*
G01*
X134992200Y-94434000D02*
X136242200Y-94434000D01*
G75*
G02*
X136392200Y-94584000I0J-150000D01*
G01*
X136392200Y-94884000D01*
G75*
G02*
X136242200Y-95034000I-150000J0D01*
G01*
X134992200Y-95034000D01*
G75*
G02*
X134842200Y-94884000I0J150000D01*
G01*
X134842200Y-94584000D01*
G75*
G02*
X134992200Y-94434000I150000J0D01*
G01*
G37*
G36*
G01*
X134992200Y-95434000D02*
X136242200Y-95434000D01*
G75*
G02*
X136392200Y-95584000I0J-150000D01*
G01*
X136392200Y-95884000D01*
G75*
G02*
X136242200Y-96034000I-150000J0D01*
G01*
X134992200Y-96034000D01*
G75*
G02*
X134842200Y-95884000I0J150000D01*
G01*
X134842200Y-95584000D01*
G75*
G02*
X134992200Y-95434000I150000J0D01*
G01*
G37*
G36*
G01*
X138842200Y-90834000D02*
X140142200Y-90834000D01*
G75*
G02*
X140392200Y-91084000I0J-250000D01*
G01*
X140392200Y-91784000D01*
G75*
G02*
X140142200Y-92034000I-250000J0D01*
G01*
X138842200Y-92034000D01*
G75*
G02*
X138592200Y-91784000I0J250000D01*
G01*
X138592200Y-91084000D01*
G75*
G02*
X138842200Y-90834000I250000J0D01*
G01*
G37*
G36*
G01*
X138842200Y-96434000D02*
X140142200Y-96434000D01*
G75*
G02*
X140392200Y-96684000I0J-250000D01*
G01*
X140392200Y-97384000D01*
G75*
G02*
X140142200Y-97634000I-250000J0D01*
G01*
X138842200Y-97634000D01*
G75*
G02*
X138592200Y-97384000I0J250000D01*
G01*
X138592200Y-96684000D01*
G75*
G02*
X138842200Y-96434000I250000J0D01*
G01*
G37*
X108780792Y-98080800D03*
D10*
X109530792Y-97855800D03*
D12*
X108080792Y-98805800D03*
D11*
X108780792Y-96330800D03*
D12*
X108080792Y-95605800D03*
D10*
X109530792Y-96555800D03*
D12*
X112980792Y-95605800D03*
D10*
X111530792Y-96555800D03*
D11*
X112280792Y-96330800D03*
D12*
X112980792Y-98805800D03*
D11*
X112280792Y-98080800D03*
D10*
X111530792Y-97855800D03*
G36*
G01*
X134969800Y-146300000D02*
X134969800Y-145800000D01*
G75*
G02*
X135194800Y-145575000I225000J0D01*
G01*
X135644800Y-145575000D01*
G75*
G02*
X135869800Y-145800000I0J-225000D01*
G01*
X135869800Y-146300000D01*
G75*
G02*
X135644800Y-146525000I-225000J0D01*
G01*
X135194800Y-146525000D01*
G75*
G02*
X134969800Y-146300000I0J225000D01*
G01*
G37*
G36*
G01*
X136519800Y-146300000D02*
X136519800Y-145800000D01*
G75*
G02*
X136744800Y-145575000I225000J0D01*
G01*
X137194800Y-145575000D01*
G75*
G02*
X137419800Y-145800000I0J-225000D01*
G01*
X137419800Y-146300000D01*
G75*
G02*
X137194800Y-146525000I-225000J0D01*
G01*
X136744800Y-146525000D01*
G75*
G02*
X136519800Y-146300000I0J225000D01*
G01*
G37*
G36*
G01*
X124379800Y-98430800D02*
X123879800Y-98430800D01*
G75*
G02*
X123654800Y-98205800I0J225000D01*
G01*
X123654800Y-97755800D01*
G75*
G02*
X123879800Y-97530800I225000J0D01*
G01*
X124379800Y-97530800D01*
G75*
G02*
X124604800Y-97755800I0J-225000D01*
G01*
X124604800Y-98205800D01*
G75*
G02*
X124379800Y-98430800I-225000J0D01*
G01*
G37*
G36*
G01*
X124379800Y-96880800D02*
X123879800Y-96880800D01*
G75*
G02*
X123654800Y-96655800I0J225000D01*
G01*
X123654800Y-96205800D01*
G75*
G02*
X123879800Y-95980800I225000J0D01*
G01*
X124379800Y-95980800D01*
G75*
G02*
X124604800Y-96205800I0J-225000D01*
G01*
X124604800Y-96655800D01*
G75*
G02*
X124379800Y-96880800I-225000J0D01*
G01*
G37*
G36*
G01*
X119131800Y-91749200D02*
X119131800Y-92299200D01*
G75*
G02*
X118931800Y-92499200I-200000J0D01*
G01*
X118531800Y-92499200D01*
G75*
G02*
X118331800Y-92299200I0J200000D01*
G01*
X118331800Y-91749200D01*
G75*
G02*
X118531800Y-91549200I200000J0D01*
G01*
X118931800Y-91549200D01*
G75*
G02*
X119131800Y-91749200I0J-200000D01*
G01*
G37*
G36*
G01*
X117481800Y-91749200D02*
X117481800Y-92299200D01*
G75*
G02*
X117281800Y-92499200I-200000J0D01*
G01*
X116881800Y-92499200D01*
G75*
G02*
X116681800Y-92299200I0J200000D01*
G01*
X116681800Y-91749200D01*
G75*
G02*
X116881800Y-91549200I200000J0D01*
G01*
X117281800Y-91549200D01*
G75*
G02*
X117481800Y-91749200I0J-200000D01*
G01*
G37*
G36*
G01*
X99876800Y-134665000D02*
X100376800Y-134665000D01*
G75*
G02*
X100601800Y-134890000I0J-225000D01*
G01*
X100601800Y-135340000D01*
G75*
G02*
X100376800Y-135565000I-225000J0D01*
G01*
X99876800Y-135565000D01*
G75*
G02*
X99651800Y-135340000I0J225000D01*
G01*
X99651800Y-134890000D01*
G75*
G02*
X99876800Y-134665000I225000J0D01*
G01*
G37*
G36*
G01*
X99876800Y-136215000D02*
X100376800Y-136215000D01*
G75*
G02*
X100601800Y-136440000I0J-225000D01*
G01*
X100601800Y-136890000D01*
G75*
G02*
X100376800Y-137115000I-225000J0D01*
G01*
X99876800Y-137115000D01*
G75*
G02*
X99651800Y-136890000I0J225000D01*
G01*
X99651800Y-136440000D01*
G75*
G02*
X99876800Y-136215000I225000J0D01*
G01*
G37*
G36*
G01*
X137406600Y-106709800D02*
X137406600Y-107259800D01*
G75*
G02*
X137206600Y-107459800I-200000J0D01*
G01*
X136806600Y-107459800D01*
G75*
G02*
X136606600Y-107259800I0J200000D01*
G01*
X136606600Y-106709800D01*
G75*
G02*
X136806600Y-106509800I200000J0D01*
G01*
X137206600Y-106509800D01*
G75*
G02*
X137406600Y-106709800I0J-200000D01*
G01*
G37*
G36*
G01*
X135756600Y-106709800D02*
X135756600Y-107259800D01*
G75*
G02*
X135556600Y-107459800I-200000J0D01*
G01*
X135156600Y-107459800D01*
G75*
G02*
X134956600Y-107259800I0J200000D01*
G01*
X134956600Y-106709800D01*
G75*
G02*
X135156600Y-106509800I200000J0D01*
G01*
X135556600Y-106509800D01*
G75*
G02*
X135756600Y-106709800I0J-200000D01*
G01*
G37*
G36*
G01*
X135182800Y-147111000D02*
X135682800Y-147111000D01*
G75*
G02*
X135907800Y-147336000I0J-225000D01*
G01*
X135907800Y-147786000D01*
G75*
G02*
X135682800Y-148011000I-225000J0D01*
G01*
X135182800Y-148011000D01*
G75*
G02*
X134957800Y-147786000I0J225000D01*
G01*
X134957800Y-147336000D01*
G75*
G02*
X135182800Y-147111000I225000J0D01*
G01*
G37*
G36*
G01*
X135182800Y-148661000D02*
X135682800Y-148661000D01*
G75*
G02*
X135907800Y-148886000I0J-225000D01*
G01*
X135907800Y-149336000D01*
G75*
G02*
X135682800Y-149561000I-225000J0D01*
G01*
X135182800Y-149561000D01*
G75*
G02*
X134957800Y-149336000I0J225000D01*
G01*
X134957800Y-148886000D01*
G75*
G02*
X135182800Y-148661000I225000J0D01*
G01*
G37*
G36*
G01*
X119131800Y-93247800D02*
X119131800Y-93797800D01*
G75*
G02*
X118931800Y-93997800I-200000J0D01*
G01*
X118531800Y-93997800D01*
G75*
G02*
X118331800Y-93797800I0J200000D01*
G01*
X118331800Y-93247800D01*
G75*
G02*
X118531800Y-93047800I200000J0D01*
G01*
X118931800Y-93047800D01*
G75*
G02*
X119131800Y-93247800I0J-200000D01*
G01*
G37*
G36*
G01*
X117481800Y-93247800D02*
X117481800Y-93797800D01*
G75*
G02*
X117281800Y-93997800I-200000J0D01*
G01*
X116881800Y-93997800D01*
G75*
G02*
X116681800Y-93797800I0J200000D01*
G01*
X116681800Y-93247800D01*
G75*
G02*
X116881800Y-93047800I200000J0D01*
G01*
X117281800Y-93047800D01*
G75*
G02*
X117481800Y-93247800I0J-200000D01*
G01*
G37*
D14*
X138684000Y-147963600D03*
X138684000Y-145863600D03*
G36*
G01*
X134819200Y-131908000D02*
X134319200Y-131908000D01*
G75*
G02*
X134094200Y-131683000I0J225000D01*
G01*
X134094200Y-131233000D01*
G75*
G02*
X134319200Y-131008000I225000J0D01*
G01*
X134819200Y-131008000D01*
G75*
G02*
X135044200Y-131233000I0J-225000D01*
G01*
X135044200Y-131683000D01*
G75*
G02*
X134819200Y-131908000I-225000J0D01*
G01*
G37*
G36*
G01*
X134819200Y-130358000D02*
X134319200Y-130358000D01*
G75*
G02*
X134094200Y-130133000I0J225000D01*
G01*
X134094200Y-129683000D01*
G75*
G02*
X134319200Y-129458000I225000J0D01*
G01*
X134819200Y-129458000D01*
G75*
G02*
X135044200Y-129683000I0J-225000D01*
G01*
X135044200Y-130133000D01*
G75*
G02*
X134819200Y-130358000I-225000J0D01*
G01*
G37*
G36*
G01*
X113813400Y-91776000D02*
X113313400Y-91776000D01*
G75*
G02*
X113088400Y-91551000I0J225000D01*
G01*
X113088400Y-91101000D01*
G75*
G02*
X113313400Y-90876000I225000J0D01*
G01*
X113813400Y-90876000D01*
G75*
G02*
X114038400Y-91101000I0J-225000D01*
G01*
X114038400Y-91551000D01*
G75*
G02*
X113813400Y-91776000I-225000J0D01*
G01*
G37*
G36*
G01*
X113813400Y-90226000D02*
X113313400Y-90226000D01*
G75*
G02*
X113088400Y-90001000I0J225000D01*
G01*
X113088400Y-89551000D01*
G75*
G02*
X113313400Y-89326000I225000J0D01*
G01*
X113813400Y-89326000D01*
G75*
G02*
X114038400Y-89551000I0J-225000D01*
G01*
X114038400Y-90001000D01*
G75*
G02*
X113813400Y-90226000I-225000J0D01*
G01*
G37*
G36*
G01*
X137406600Y-103712600D02*
X137406600Y-104262600D01*
G75*
G02*
X137206600Y-104462600I-200000J0D01*
G01*
X136806600Y-104462600D01*
G75*
G02*
X136606600Y-104262600I0J200000D01*
G01*
X136606600Y-103712600D01*
G75*
G02*
X136806600Y-103512600I200000J0D01*
G01*
X137206600Y-103512600D01*
G75*
G02*
X137406600Y-103712600I0J-200000D01*
G01*
G37*
G36*
G01*
X135756600Y-103712600D02*
X135756600Y-104262600D01*
G75*
G02*
X135556600Y-104462600I-200000J0D01*
G01*
X135156600Y-104462600D01*
G75*
G02*
X134956600Y-104262600I0J200000D01*
G01*
X134956600Y-103712600D01*
G75*
G02*
X135156600Y-103512600I200000J0D01*
G01*
X135556600Y-103512600D01*
G75*
G02*
X135756600Y-103712600I0J-200000D01*
G01*
G37*
G36*
G01*
X94919928Y-93427000D02*
X94369928Y-93427000D01*
G75*
G02*
X94169928Y-93227000I0J200000D01*
G01*
X94169928Y-92827000D01*
G75*
G02*
X94369928Y-92627000I200000J0D01*
G01*
X94919928Y-92627000D01*
G75*
G02*
X95119928Y-92827000I0J-200000D01*
G01*
X95119928Y-93227000D01*
G75*
G02*
X94919928Y-93427000I-200000J0D01*
G01*
G37*
G36*
G01*
X94919928Y-91777000D02*
X94369928Y-91777000D01*
G75*
G02*
X94169928Y-91577000I0J200000D01*
G01*
X94169928Y-91177000D01*
G75*
G02*
X94369928Y-90977000I200000J0D01*
G01*
X94919928Y-90977000D01*
G75*
G02*
X95119928Y-91177000I0J-200000D01*
G01*
X95119928Y-91577000D01*
G75*
G02*
X94919928Y-91777000I-200000J0D01*
G01*
G37*
G36*
G01*
X125152400Y-134133400D02*
X125152400Y-133633400D01*
G75*
G02*
X125377400Y-133408400I225000J0D01*
G01*
X125827400Y-133408400D01*
G75*
G02*
X126052400Y-133633400I0J-225000D01*
G01*
X126052400Y-134133400D01*
G75*
G02*
X125827400Y-134358400I-225000J0D01*
G01*
X125377400Y-134358400D01*
G75*
G02*
X125152400Y-134133400I0J225000D01*
G01*
G37*
G36*
G01*
X126702400Y-134133400D02*
X126702400Y-133633400D01*
G75*
G02*
X126927400Y-133408400I225000J0D01*
G01*
X127377400Y-133408400D01*
G75*
G02*
X127602400Y-133633400I0J-225000D01*
G01*
X127602400Y-134133400D01*
G75*
G02*
X127377400Y-134358400I-225000J0D01*
G01*
X126927400Y-134358400D01*
G75*
G02*
X126702400Y-134133400I0J225000D01*
G01*
G37*
G36*
G01*
X111867400Y-91419000D02*
X111867400Y-91969000D01*
G75*
G02*
X111667400Y-92169000I-200000J0D01*
G01*
X111267400Y-92169000D01*
G75*
G02*
X111067400Y-91969000I0J200000D01*
G01*
X111067400Y-91419000D01*
G75*
G02*
X111267400Y-91219000I200000J0D01*
G01*
X111667400Y-91219000D01*
G75*
G02*
X111867400Y-91419000I0J-200000D01*
G01*
G37*
G36*
G01*
X110217400Y-91419000D02*
X110217400Y-91969000D01*
G75*
G02*
X110017400Y-92169000I-200000J0D01*
G01*
X109617400Y-92169000D01*
G75*
G02*
X109417400Y-91969000I0J200000D01*
G01*
X109417400Y-91419000D01*
G75*
G02*
X109617400Y-91219000I200000J0D01*
G01*
X110017400Y-91219000D01*
G75*
G02*
X110217400Y-91419000I0J-200000D01*
G01*
G37*
G36*
G01*
X133049200Y-91739000D02*
X133549200Y-91739000D01*
G75*
G02*
X133774200Y-91964000I0J-225000D01*
G01*
X133774200Y-92414000D01*
G75*
G02*
X133549200Y-92639000I-225000J0D01*
G01*
X133049200Y-92639000D01*
G75*
G02*
X132824200Y-92414000I0J225000D01*
G01*
X132824200Y-91964000D01*
G75*
G02*
X133049200Y-91739000I225000J0D01*
G01*
G37*
G36*
G01*
X133049200Y-93289000D02*
X133549200Y-93289000D01*
G75*
G02*
X133774200Y-93514000I0J-225000D01*
G01*
X133774200Y-93964000D01*
G75*
G02*
X133549200Y-94189000I-225000J0D01*
G01*
X133049200Y-94189000D01*
G75*
G02*
X132824200Y-93964000I0J225000D01*
G01*
X132824200Y-93514000D01*
G75*
G02*
X133049200Y-93289000I225000J0D01*
G01*
G37*
G36*
G01*
X90515100Y-137115000D02*
X90015100Y-137115000D01*
G75*
G02*
X89790100Y-136890000I0J225000D01*
G01*
X89790100Y-136440000D01*
G75*
G02*
X90015100Y-136215000I225000J0D01*
G01*
X90515100Y-136215000D01*
G75*
G02*
X90740100Y-136440000I0J-225000D01*
G01*
X90740100Y-136890000D01*
G75*
G02*
X90515100Y-137115000I-225000J0D01*
G01*
G37*
G36*
G01*
X90515100Y-135565000D02*
X90015100Y-135565000D01*
G75*
G02*
X89790100Y-135340000I0J225000D01*
G01*
X89790100Y-134890000D01*
G75*
G02*
X90015100Y-134665000I225000J0D01*
G01*
X90515100Y-134665000D01*
G75*
G02*
X90740100Y-134890000I0J-225000D01*
G01*
X90740100Y-135340000D01*
G75*
G02*
X90515100Y-135565000I-225000J0D01*
G01*
G37*
G36*
G01*
X88753528Y-93302000D02*
X88753528Y-93002000D01*
G75*
G02*
X88903528Y-92852000I150000J0D01*
G01*
X90078528Y-92852000D01*
G75*
G02*
X90228528Y-93002000I0J-150000D01*
G01*
X90228528Y-93302000D01*
G75*
G02*
X90078528Y-93452000I-150000J0D01*
G01*
X88903528Y-93452000D01*
G75*
G02*
X88753528Y-93302000I0J150000D01*
G01*
G37*
G36*
G01*
X88753528Y-91402000D02*
X88753528Y-91102000D01*
G75*
G02*
X88903528Y-90952000I150000J0D01*
G01*
X90078528Y-90952000D01*
G75*
G02*
X90228528Y-91102000I0J-150000D01*
G01*
X90228528Y-91402000D01*
G75*
G02*
X90078528Y-91552000I-150000J0D01*
G01*
X88903528Y-91552000D01*
G75*
G02*
X88753528Y-91402000I0J150000D01*
G01*
G37*
G36*
G01*
X90628528Y-92352000D02*
X90628528Y-92052000D01*
G75*
G02*
X90778528Y-91902000I150000J0D01*
G01*
X91953528Y-91902000D01*
G75*
G02*
X92103528Y-92052000I0J-150000D01*
G01*
X92103528Y-92352000D01*
G75*
G02*
X91953528Y-92502000I-150000J0D01*
G01*
X90778528Y-92502000D01*
G75*
G02*
X90628528Y-92352000I0J150000D01*
G01*
G37*
G36*
G01*
X136706800Y-147111000D02*
X137206800Y-147111000D01*
G75*
G02*
X137431800Y-147336000I0J-225000D01*
G01*
X137431800Y-147786000D01*
G75*
G02*
X137206800Y-148011000I-225000J0D01*
G01*
X136706800Y-148011000D01*
G75*
G02*
X136481800Y-147786000I0J225000D01*
G01*
X136481800Y-147336000D01*
G75*
G02*
X136706800Y-147111000I225000J0D01*
G01*
G37*
G36*
G01*
X136706800Y-148661000D02*
X137206800Y-148661000D01*
G75*
G02*
X137431800Y-148886000I0J-225000D01*
G01*
X137431800Y-149336000D01*
G75*
G02*
X137206800Y-149561000I-225000J0D01*
G01*
X136706800Y-149561000D01*
G75*
G02*
X136481800Y-149336000I0J225000D01*
G01*
X136481800Y-148886000D01*
G75*
G02*
X136706800Y-148661000I225000J0D01*
G01*
G37*
G36*
G01*
X139060600Y-152202600D02*
X138510600Y-152202600D01*
G75*
G02*
X138310600Y-152002600I0J200000D01*
G01*
X138310600Y-151602600D01*
G75*
G02*
X138510600Y-151402600I200000J0D01*
G01*
X139060600Y-151402600D01*
G75*
G02*
X139260600Y-151602600I0J-200000D01*
G01*
X139260600Y-152002600D01*
G75*
G02*
X139060600Y-152202600I-200000J0D01*
G01*
G37*
G36*
G01*
X139060600Y-150552600D02*
X138510600Y-150552600D01*
G75*
G02*
X138310600Y-150352600I0J200000D01*
G01*
X138310600Y-149952600D01*
G75*
G02*
X138510600Y-149752600I200000J0D01*
G01*
X139060600Y-149752600D01*
G75*
G02*
X139260600Y-149952600I0J-200000D01*
G01*
X139260600Y-150352600D01*
G75*
G02*
X139060600Y-150552600I-200000J0D01*
G01*
G37*
G36*
G01*
X137419800Y-100055000D02*
X137419800Y-100605000D01*
G75*
G02*
X137219800Y-100805000I-200000J0D01*
G01*
X136819800Y-100805000D01*
G75*
G02*
X136619800Y-100605000I0J200000D01*
G01*
X136619800Y-100055000D01*
G75*
G02*
X136819800Y-99855000I200000J0D01*
G01*
X137219800Y-99855000D01*
G75*
G02*
X137419800Y-100055000I0J-200000D01*
G01*
G37*
G36*
G01*
X135769800Y-100055000D02*
X135769800Y-100605000D01*
G75*
G02*
X135569800Y-100805000I-200000J0D01*
G01*
X135169800Y-100805000D01*
G75*
G02*
X134969800Y-100605000I0J200000D01*
G01*
X134969800Y-100055000D01*
G75*
G02*
X135169800Y-99855000I200000J0D01*
G01*
X135569800Y-99855000D01*
G75*
G02*
X135769800Y-100055000I0J-200000D01*
G01*
G37*
G36*
G01*
X125163240Y-137155600D02*
X125163240Y-136605600D01*
G75*
G02*
X125363240Y-136405600I200000J0D01*
G01*
X125763240Y-136405600D01*
G75*
G02*
X125963240Y-136605600I0J-200000D01*
G01*
X125963240Y-137155600D01*
G75*
G02*
X125763240Y-137355600I-200000J0D01*
G01*
X125363240Y-137355600D01*
G75*
G02*
X125163240Y-137155600I0J200000D01*
G01*
G37*
G36*
G01*
X126813240Y-137155600D02*
X126813240Y-136605600D01*
G75*
G02*
X127013240Y-136405600I200000J0D01*
G01*
X127413240Y-136405600D01*
G75*
G02*
X127613240Y-136605600I0J-200000D01*
G01*
X127613240Y-137155600D01*
G75*
G02*
X127413240Y-137355600I-200000J0D01*
G01*
X127013240Y-137355600D01*
G75*
G02*
X126813240Y-137155600I0J200000D01*
G01*
G37*
D10*
X100269800Y-97855800D03*
D12*
X98819800Y-98805800D03*
D11*
X99519800Y-98080800D03*
D10*
X100269800Y-96555800D03*
D12*
X98819800Y-95605800D03*
D11*
X99519800Y-96330800D03*
D10*
X102269800Y-96555800D03*
D12*
X103719800Y-95605800D03*
D11*
X103019800Y-96330800D03*
D10*
X102269800Y-97855800D03*
D11*
X103019800Y-98080800D03*
D12*
X103719800Y-98805800D03*
G36*
G01*
X137406600Y-105211200D02*
X137406600Y-105761200D01*
G75*
G02*
X137206600Y-105961200I-200000J0D01*
G01*
X136806600Y-105961200D01*
G75*
G02*
X136606600Y-105761200I0J200000D01*
G01*
X136606600Y-105211200D01*
G75*
G02*
X136806600Y-105011200I200000J0D01*
G01*
X137206600Y-105011200D01*
G75*
G02*
X137406600Y-105211200I0J-200000D01*
G01*
G37*
G36*
G01*
X135756600Y-105211200D02*
X135756600Y-105761200D01*
G75*
G02*
X135556600Y-105961200I-200000J0D01*
G01*
X135156600Y-105961200D01*
G75*
G02*
X134956600Y-105761200I0J200000D01*
G01*
X134956600Y-105211200D01*
G75*
G02*
X135156600Y-105011200I200000J0D01*
G01*
X135556600Y-105011200D01*
G75*
G02*
X135756600Y-105211200I0J-200000D01*
G01*
G37*
G36*
G01*
X88389500Y-132861600D02*
X88889500Y-132861600D01*
G75*
G02*
X89114500Y-133086600I0J-225000D01*
G01*
X89114500Y-133536600D01*
G75*
G02*
X88889500Y-133761600I-225000J0D01*
G01*
X88389500Y-133761600D01*
G75*
G02*
X88164500Y-133536600I0J225000D01*
G01*
X88164500Y-133086600D01*
G75*
G02*
X88389500Y-132861600I225000J0D01*
G01*
G37*
G36*
G01*
X88389500Y-134411600D02*
X88889500Y-134411600D01*
G75*
G02*
X89114500Y-134636600I0J-225000D01*
G01*
X89114500Y-135086600D01*
G75*
G02*
X88889500Y-135311600I-225000J0D01*
G01*
X88389500Y-135311600D01*
G75*
G02*
X88164500Y-135086600I0J225000D01*
G01*
X88164500Y-134636600D01*
G75*
G02*
X88389500Y-134411600I225000J0D01*
G01*
G37*
D10*
X91379800Y-97855800D03*
D12*
X89929800Y-98805800D03*
D11*
X90629800Y-98080800D03*
D10*
X91379800Y-96555800D03*
D11*
X90629800Y-96330800D03*
D12*
X89929800Y-95605800D03*
X94829800Y-95605800D03*
D10*
X93379800Y-96555800D03*
D11*
X94129800Y-96330800D03*
D12*
X94829800Y-98805800D03*
D11*
X94129800Y-98080800D03*
D10*
X93379800Y-97855800D03*
G36*
G01*
X98877800Y-137115000D02*
X98327800Y-137115000D01*
G75*
G02*
X98127800Y-136915000I0J200000D01*
G01*
X98127800Y-136515000D01*
G75*
G02*
X98327800Y-136315000I200000J0D01*
G01*
X98877800Y-136315000D01*
G75*
G02*
X99077800Y-136515000I0J-200000D01*
G01*
X99077800Y-136915000D01*
G75*
G02*
X98877800Y-137115000I-200000J0D01*
G01*
G37*
G36*
G01*
X98877800Y-135465000D02*
X98327800Y-135465000D01*
G75*
G02*
X98127800Y-135265000I0J200000D01*
G01*
X98127800Y-134865000D01*
G75*
G02*
X98327800Y-134665000I200000J0D01*
G01*
X98877800Y-134665000D01*
G75*
G02*
X99077800Y-134865000I0J-200000D01*
G01*
X99077800Y-135265000D01*
G75*
G02*
X98877800Y-135465000I-200000J0D01*
G01*
G37*
M02*
