%TF.GenerationSoftware,KiCad,Pcbnew,6.0.7+dfsg-1~bpo11+1*%
%TF.CreationDate,2023-01-24T09:36:58+00:00*%
%TF.ProjectId,aws-iot-expresslink-demo-badge,6177732d-696f-4742-9d65-787072657373,1*%
%TF.SameCoordinates,Original*%
%TF.FileFunction,Drillmap*%
%TF.FilePolarity,Positive*%
%FSLAX45Y45*%
G04 Gerber Fmt 4.5, Leading zero omitted, Abs format (unit mm)*
G04 Created by KiCad (PCBNEW 6.0.7+dfsg-1~bpo11+1) date 2023-01-24 09:36:58*
%MOMM*%
%LPD*%
G01*
G04 APERTURE LIST*
%ADD10C,0.100000*%
%ADD11C,0.200000*%
%ADD12C,0.027940*%
%ADD13C,0.075000*%
%ADD14C,0.102000*%
G04 APERTURE END LIST*
D10*
X13857102Y-8351809D02*
G75*
G03*
X8322177Y-8351809I-2767462J-10977177D01*
G01*
X8128000Y-16781160D02*
G75*
G03*
X8239678Y-16946243I177660J-130D01*
G01*
X14051278Y-8590280D02*
G75*
G03*
X13857102Y-8351809I-245918J-1950D01*
G01*
X14051280Y-8590280D02*
X14051280Y-16781160D01*
X8322178Y-8351810D02*
G75*
G03*
X8128000Y-8590280I51652J-240350D01*
G01*
X8239678Y-16946243D02*
G75*
G03*
X13939602Y-16946243I2849962J10525904D01*
G01*
X13939604Y-16946247D02*
G75*
G03*
X14051280Y-16781160I-67144J165737D01*
G01*
X8128000Y-16781160D02*
X8128000Y-8590280D01*
D11*
D12*
X8195310Y-8642350D02*
X8223250Y-8670290D01*
X8223250Y-8642350D02*
X8195310Y-8670290D01*
X8202930Y-13920470D02*
X8230870Y-13948410D01*
X8230870Y-13920470D02*
X8202930Y-13948410D01*
X8266430Y-11984990D02*
X8294370Y-12012930D01*
X8294370Y-11984990D02*
X8266430Y-12012930D01*
X8388350Y-16673830D02*
X8416290Y-16701770D01*
X8416290Y-16673830D02*
X8388350Y-16701770D01*
X8393430Y-13397230D02*
X8421370Y-13425170D01*
X8421370Y-13397230D02*
X8393430Y-13425170D01*
X8550910Y-11400790D02*
X8578850Y-11428730D01*
X8578850Y-11400790D02*
X8550910Y-11428730D01*
X8586470Y-10013950D02*
X8614410Y-10041890D01*
X8614410Y-10013950D02*
X8586470Y-10041890D01*
X8754110Y-13567410D02*
X8782050Y-13595350D01*
X8782050Y-13567410D02*
X8754110Y-13595350D01*
X8768700Y-13247370D02*
X8796640Y-13275310D01*
X8796640Y-13247370D02*
X8768700Y-13275310D01*
X8936990Y-12066270D02*
X8964930Y-12094210D01*
X8964930Y-12066270D02*
X8936990Y-12094210D01*
X8967470Y-9013190D02*
X8995410Y-9041130D01*
X8995410Y-9013190D02*
X8967470Y-9041130D01*
X8999971Y-9431702D02*
X9027911Y-9459642D01*
X9027911Y-9431702D02*
X8999971Y-9459642D01*
X9013190Y-10755630D02*
X9041130Y-10783570D01*
X9041130Y-10755630D02*
X9013190Y-10783570D01*
X9086850Y-13740130D02*
X9114790Y-13768070D01*
X9114790Y-13740130D02*
X9086850Y-13768070D01*
X9175750Y-11400790D02*
X9203690Y-11428730D01*
X9203690Y-11400790D02*
X9175750Y-11428730D01*
X9175750Y-12066270D02*
X9203690Y-12094210D01*
X9203690Y-12066270D02*
X9175750Y-12094210D01*
X9190990Y-9533840D02*
X9218930Y-9561780D01*
X9218930Y-9533840D02*
X9190990Y-9561780D01*
X9226550Y-9023350D02*
X9254490Y-9051290D01*
X9254490Y-9023350D02*
X9226550Y-9051290D01*
X9226550Y-10011410D02*
X9254490Y-10039350D01*
X9254490Y-10011410D02*
X9226550Y-10039350D01*
X9310370Y-13366750D02*
X9338310Y-13394690D01*
X9338310Y-13366750D02*
X9310370Y-13394690D01*
X9373870Y-9036050D02*
X9401810Y-9063990D01*
X9401810Y-9036050D02*
X9373870Y-9063990D01*
X9384030Y-8611870D02*
X9411970Y-8639810D01*
X9411970Y-8611870D02*
X9384030Y-8639810D01*
X9465310Y-16920210D02*
X9493250Y-16948150D01*
X9493250Y-16920210D02*
X9465310Y-16948150D01*
X9475470Y-12066270D02*
X9503410Y-12094210D01*
X9503410Y-12066270D02*
X9475470Y-12094210D01*
X9541510Y-13740130D02*
X9569450Y-13768070D01*
X9569450Y-13740130D02*
X9541510Y-13768070D01*
X9561830Y-10755630D02*
X9589770Y-10783570D01*
X9589770Y-10755630D02*
X9561830Y-10783570D01*
X9673590Y-9475470D02*
X9701530Y-9503410D01*
X9701530Y-9475470D02*
X9673590Y-9503410D01*
X9716770Y-9112250D02*
X9744710Y-9140190D01*
X9744710Y-9112250D02*
X9716770Y-9140190D01*
X9744819Y-9983470D02*
X9772759Y-10011410D01*
X9772759Y-9983470D02*
X9744819Y-10011410D01*
X9818379Y-9302750D02*
X9846319Y-9330690D01*
X9846319Y-9302750D02*
X9818379Y-9330690D01*
X9818425Y-9984263D02*
X9846365Y-10012203D01*
X9846365Y-9984263D02*
X9818425Y-10012203D01*
X9820910Y-10755630D02*
X9848850Y-10783570D01*
X9848850Y-10755630D02*
X9820910Y-10783570D01*
X9825990Y-13803630D02*
X9853930Y-13831570D01*
X9853930Y-13803630D02*
X9825990Y-13831570D01*
X9917430Y-16694150D02*
X9945370Y-16722090D01*
X9945370Y-16694150D02*
X9917430Y-16722090D01*
X9925050Y-10052050D02*
X9952990Y-10079990D01*
X9952990Y-10052050D02*
X9925050Y-10079990D01*
X9968230Y-9196070D02*
X9996170Y-9224010D01*
X9996170Y-9196070D02*
X9968230Y-9224010D01*
X10079990Y-12066270D02*
X10107930Y-12094210D01*
X10107930Y-12066270D02*
X10079990Y-12094210D01*
X10105390Y-8926830D02*
X10133330Y-8954770D01*
X10133330Y-8926830D02*
X10105390Y-8954770D01*
X10151110Y-13491210D02*
X10179050Y-13519150D01*
X10179050Y-13491210D02*
X10151110Y-13519150D01*
X10316210Y-8627110D02*
X10344150Y-8655050D01*
X10344150Y-8627110D02*
X10316210Y-8655050D01*
X10379710Y-8825230D02*
X10407650Y-8853170D01*
X10407650Y-8825230D02*
X10379710Y-8853170D01*
X10568065Y-9098211D02*
X10596005Y-9126151D01*
X10596005Y-9098211D02*
X10568065Y-9126151D01*
X10580370Y-9188450D02*
X10608310Y-9216390D01*
X10608310Y-9188450D02*
X10580370Y-9216390D01*
X10580370Y-9315450D02*
X10608310Y-9343390D01*
X10608310Y-9315450D02*
X10580370Y-9343390D01*
X10582910Y-13592810D02*
X10610850Y-13620750D01*
X10610850Y-13592810D02*
X10582910Y-13620750D01*
X10624920Y-9379869D02*
X10652860Y-9407809D01*
X10652860Y-9379869D02*
X10624920Y-9407809D01*
X10631170Y-9251950D02*
X10659110Y-9279890D01*
X10659110Y-9251950D02*
X10631170Y-9279890D01*
X10659110Y-8926830D02*
X10687050Y-8954770D01*
X10687050Y-8926830D02*
X10659110Y-8954770D01*
X10681970Y-9188450D02*
X10709910Y-9216390D01*
X10709910Y-9188450D02*
X10681970Y-9216390D01*
X10681970Y-9777730D02*
X10709910Y-9805670D01*
X10709910Y-9777730D02*
X10681970Y-9805670D01*
X10707760Y-9379869D02*
X10735700Y-9407809D01*
X10735700Y-9379869D02*
X10707760Y-9407809D01*
X10935970Y-10763250D02*
X10963910Y-10791190D01*
X10963910Y-10763250D02*
X10935970Y-10791190D01*
X11035030Y-9536430D02*
X11062970Y-9564370D01*
X11062970Y-9536430D02*
X11035030Y-9564370D01*
X11073130Y-17077690D02*
X11101070Y-17105630D01*
X11101070Y-17077690D02*
X11073130Y-17105630D01*
X11306810Y-12861290D02*
X11334750Y-12889230D01*
X11334750Y-12861290D02*
X11306810Y-12889230D01*
X11403330Y-9190990D02*
X11431270Y-9218930D01*
X11431270Y-9190990D02*
X11403330Y-9218930D01*
X11451590Y-8891270D02*
X11479530Y-8919210D01*
X11479530Y-8891270D02*
X11451590Y-8919210D01*
X11451590Y-9061450D02*
X11479530Y-9089390D01*
X11479530Y-9061450D02*
X11451590Y-9089390D01*
X11497310Y-9373870D02*
X11525250Y-9401810D01*
X11525250Y-9373870D02*
X11497310Y-9401810D01*
X11532870Y-9165590D02*
X11560810Y-9193530D01*
X11560810Y-9165590D02*
X11532870Y-9193530D01*
X11545570Y-10763250D02*
X11573510Y-10791190D01*
X11573510Y-10763250D02*
X11545570Y-10791190D01*
X11583670Y-9249410D02*
X11611610Y-9277350D01*
X11611610Y-9249410D02*
X11583670Y-9277350D01*
X11591380Y-9874250D02*
X11619320Y-9902190D01*
X11619320Y-9874250D02*
X11591380Y-9902190D01*
X11827510Y-8616950D02*
X11855450Y-8644890D01*
X11855450Y-8616950D02*
X11827510Y-8644890D01*
X11868100Y-9902140D02*
X11896040Y-9930080D01*
X11896040Y-9902140D02*
X11868100Y-9930080D01*
X11918950Y-16683990D02*
X11946890Y-16711930D01*
X11946890Y-16683990D02*
X11918950Y-16711930D01*
X11954510Y-9368790D02*
X11982450Y-9396730D01*
X11982450Y-9368790D02*
X11954510Y-9396730D01*
X11977370Y-9988550D02*
X12005310Y-10016490D01*
X12005310Y-9988550D02*
X11977370Y-10016490D01*
X11979910Y-9541510D02*
X12007850Y-9569450D01*
X12007850Y-9541510D02*
X11979910Y-9569450D01*
X12040870Y-8705850D02*
X12068810Y-8733790D01*
X12068810Y-8705850D02*
X12040870Y-8733790D01*
X12142470Y-8820150D02*
X12170410Y-8848090D01*
X12170410Y-8820150D02*
X12142470Y-8848090D01*
X12269470Y-10763250D02*
X12297410Y-10791190D01*
X12297410Y-10763250D02*
X12269470Y-10791190D01*
X12274550Y-13524230D02*
X12302490Y-13552170D01*
X12302490Y-13524230D02*
X12274550Y-13552170D01*
X12439650Y-13295630D02*
X12467590Y-13323570D01*
X12467590Y-13295630D02*
X12439650Y-13323570D01*
X12531090Y-11713210D02*
X12559030Y-11741150D01*
X12559030Y-11713210D02*
X12531090Y-11741150D01*
X12696190Y-16940530D02*
X12724130Y-16968470D01*
X12724130Y-16940530D02*
X12696190Y-16968470D01*
X12746990Y-8627110D02*
X12774930Y-8655050D01*
X12774930Y-8627110D02*
X12746990Y-8655050D01*
X12868910Y-9894570D02*
X12896850Y-9922510D01*
X12896850Y-9894570D02*
X12868910Y-9922510D01*
X12990830Y-13097510D02*
X13018770Y-13125450D01*
X13018770Y-13097510D02*
X12990830Y-13125450D01*
X13059410Y-13262610D02*
X13087350Y-13290550D01*
X13087350Y-13262610D02*
X13059410Y-13290550D01*
X13118805Y-15183907D02*
X13146745Y-15211847D01*
X13146745Y-15183907D02*
X13118805Y-15211847D01*
X13138150Y-13262610D02*
X13166090Y-13290550D01*
X13166090Y-13262610D02*
X13138150Y-13290550D01*
X13209270Y-13656310D02*
X13237210Y-13684250D01*
X13237210Y-13656310D02*
X13209270Y-13684250D01*
X13321030Y-13321030D02*
X13348970Y-13348970D01*
X13348970Y-13321030D02*
X13321030Y-13348970D01*
X13407390Y-9922510D02*
X13435330Y-9950450D01*
X13435330Y-9922510D02*
X13407390Y-9950450D01*
X13407390Y-10684510D02*
X13435330Y-10712450D01*
X13435330Y-10684510D02*
X13407390Y-10712450D01*
X13407390Y-11027410D02*
X13435330Y-11055350D01*
X13435330Y-11027410D02*
X13407390Y-11055350D01*
X13427710Y-9160510D02*
X13455650Y-9188450D01*
X13455650Y-9160510D02*
X13427710Y-9188450D01*
X13468350Y-15185390D02*
X13496290Y-15213330D01*
X13496290Y-15185390D02*
X13468350Y-15213330D01*
X13503910Y-16511270D02*
X13531850Y-16539210D01*
X13531850Y-16511270D02*
X13503910Y-16539210D01*
X13524230Y-13321030D02*
X13552170Y-13348970D01*
X13552170Y-13321030D02*
X13524230Y-13348970D01*
X13529310Y-14961870D02*
X13557250Y-14989810D01*
X13557250Y-14961870D02*
X13529310Y-14989810D01*
X13539470Y-13054330D02*
X13567410Y-13082270D01*
X13567410Y-13054330D02*
X13539470Y-13082270D01*
X13554710Y-14326870D02*
X13582650Y-14354810D01*
X13582650Y-14326870D02*
X13554710Y-14354810D01*
X13575030Y-9922510D02*
X13602970Y-9950450D01*
X13602970Y-9922510D02*
X13575030Y-9950450D01*
X13600430Y-15266670D02*
X13628370Y-15294610D01*
X13628370Y-15266670D02*
X13600430Y-15294610D01*
X13602970Y-12975590D02*
X13630910Y-13003530D01*
X13630910Y-12975590D02*
X13602970Y-13003530D01*
X13648690Y-9922510D02*
X13676630Y-9950450D01*
X13676630Y-9922510D02*
X13648690Y-9950450D01*
X13681760Y-13313410D02*
X13709700Y-13341350D01*
X13709700Y-13313410D02*
X13681760Y-13341350D01*
X13691870Y-13056870D02*
X13719810Y-13084810D01*
X13719810Y-13056870D02*
X13691870Y-13084810D01*
X13729970Y-13257530D02*
X13757910Y-13285470D01*
X13757910Y-13257530D02*
X13729970Y-13285470D01*
X13737290Y-13778230D02*
X13765230Y-13806170D01*
X13765230Y-13778230D02*
X13737290Y-13806170D01*
X13737290Y-14324630D02*
X13765230Y-14352570D01*
X13765230Y-14324630D02*
X13737290Y-14352570D01*
X13750290Y-15104110D02*
X13778230Y-15132050D01*
X13778230Y-15104110D02*
X13750290Y-15132050D01*
X13783058Y-13206538D02*
X13810998Y-13234478D01*
X13810998Y-13206538D02*
X13783058Y-13234478D01*
X13823948Y-10638104D02*
X13851888Y-10666044D01*
X13851888Y-10638104D02*
X13823948Y-10666044D01*
X13851549Y-10706344D02*
X13879489Y-10734284D01*
X13879489Y-10706344D02*
X13851549Y-10734284D01*
X13869670Y-16668750D02*
X13897610Y-16696690D01*
X13897610Y-16668750D02*
X13869670Y-16696690D01*
X13874748Y-10776203D02*
X13902688Y-10804143D01*
X13902688Y-10776203D02*
X13874748Y-10804143D01*
X13907770Y-10841990D02*
X13935710Y-10869930D01*
X13935710Y-10841990D02*
X13907770Y-10869930D01*
X13940790Y-10633710D02*
X13968730Y-10661650D01*
X13968730Y-10633710D02*
X13940790Y-10661650D01*
X13958570Y-15165070D02*
X13986510Y-15193010D01*
X13986510Y-15165070D02*
X13958570Y-15193010D01*
X13961110Y-8637270D02*
X13989050Y-8665210D01*
X13989050Y-8637270D02*
X13961110Y-8665210D01*
X13971270Y-12371070D02*
X13999210Y-12399010D01*
X13999210Y-12371070D02*
X13971270Y-12399010D01*
X13971270Y-13986510D02*
X13999210Y-14014450D01*
X13999210Y-13986510D02*
X13971270Y-14014450D01*
D13*
X8433800Y-9089500D02*
G75*
G03*
X8433800Y-9089500I-37500J0D01*
G01*
X8633800Y-9089500D02*
G75*
G03*
X8633800Y-9089500I-37500J0D01*
G01*
D14*
X8310880Y-10558580D02*
X8310880Y-10660580D01*
X8259880Y-10609580D02*
X8361880Y-10609580D01*
X8310880Y-12336580D02*
X8310880Y-12438580D01*
X8259880Y-12387580D02*
X8361880Y-12387580D01*
X8564880Y-10558580D02*
X8564880Y-10660580D01*
X8513880Y-10609580D02*
X8615880Y-10609580D01*
X8564880Y-12336580D02*
X8564880Y-12438580D01*
X8513880Y-12387580D02*
X8615880Y-12387580D01*
X8818880Y-10558580D02*
X8818880Y-10660580D01*
X8767880Y-10609580D02*
X8869880Y-10609580D01*
X8818880Y-12336580D02*
X8818880Y-12438580D01*
X8767880Y-12387580D02*
X8869880Y-12387580D01*
X9072880Y-10558580D02*
X9072880Y-10660580D01*
X9021880Y-10609580D02*
X9123880Y-10609580D01*
X9072880Y-12336580D02*
X9072880Y-12438580D01*
X9021880Y-12387580D02*
X9123880Y-12387580D01*
X9326880Y-10558580D02*
X9326880Y-10660580D01*
X9275880Y-10609580D02*
X9377880Y-10609580D01*
X9326880Y-12336580D02*
X9326880Y-12438580D01*
X9275880Y-12387580D02*
X9377880Y-12387580D01*
X9580880Y-10558580D02*
X9580880Y-10660580D01*
X9529880Y-10609580D02*
X9631880Y-10609580D01*
X9580880Y-12336580D02*
X9580880Y-12438580D01*
X9529880Y-12387580D02*
X9631880Y-12387580D01*
X9834880Y-10558580D02*
X9834880Y-10660580D01*
X9783880Y-10609580D02*
X9885880Y-10609580D01*
X9834880Y-12336580D02*
X9834880Y-12438580D01*
X9783880Y-12387580D02*
X9885880Y-12387580D01*
X10088880Y-10558580D02*
X10088880Y-10660580D01*
X10037880Y-10609580D02*
X10139880Y-10609580D01*
X10088880Y-12336580D02*
X10088880Y-12438580D01*
X10037880Y-12387580D02*
X10139880Y-12387580D01*
X10342880Y-10558580D02*
X10342880Y-10660580D01*
X10291880Y-10609580D02*
X10393880Y-10609580D01*
X10342880Y-12336580D02*
X10342880Y-12438580D01*
X10291880Y-12387580D02*
X10393880Y-12387580D01*
X10596880Y-10558580D02*
X10596880Y-10660580D01*
X10545880Y-10609580D02*
X10647880Y-10609580D01*
X10596880Y-12336580D02*
X10596880Y-12438580D01*
X10545880Y-12387580D02*
X10647880Y-12387580D01*
X10850880Y-10558580D02*
X10850880Y-10660580D01*
X10799880Y-10609580D02*
X10901880Y-10609580D01*
X10850880Y-12336580D02*
X10850880Y-12438580D01*
X10799880Y-12387580D02*
X10901880Y-12387580D01*
X11104880Y-10558580D02*
X11104880Y-10660580D01*
X11053880Y-10609580D02*
X11155880Y-10609580D01*
X11104880Y-12336580D02*
X11104880Y-12438580D01*
X11053880Y-12387580D02*
X11155880Y-12387580D01*
X11358880Y-10558580D02*
X11358880Y-10660580D01*
X11307880Y-10609580D02*
X11409880Y-10609580D01*
X11358880Y-12336580D02*
X11358880Y-12438580D01*
X11307880Y-12387580D02*
X11409880Y-12387580D01*
X11612880Y-10558580D02*
X11612880Y-10660580D01*
X11561880Y-10609580D02*
X11663880Y-10609580D01*
X11612880Y-12336580D02*
X11612880Y-12438580D01*
X11561880Y-12387580D02*
X11663880Y-12387580D01*
X11866880Y-10558580D02*
X11866880Y-10660580D01*
X11815880Y-10609580D02*
X11917880Y-10609580D01*
X11866880Y-12336580D02*
X11866880Y-12438580D01*
X11815880Y-12387580D02*
X11917880Y-12387580D01*
X12120880Y-10558580D02*
X12120880Y-10660580D01*
X12069880Y-10609580D02*
X12171880Y-10609580D01*
X12120880Y-12336580D02*
X12120880Y-12438580D01*
X12069880Y-12387580D02*
X12171880Y-12387580D01*
X12374880Y-10558580D02*
X12374880Y-10660580D01*
X12323880Y-10609580D02*
X12425880Y-10609580D01*
X12374880Y-12336580D02*
X12374880Y-12438580D01*
X12323880Y-12387580D02*
X12425880Y-12387580D01*
X12628880Y-10558580D02*
X12628880Y-10660580D01*
X12577880Y-10609580D02*
X12679880Y-10609580D01*
X12628880Y-12336580D02*
X12628880Y-12438580D01*
X12577880Y-12387580D02*
X12679880Y-12387580D01*
X12882880Y-10558580D02*
X12882880Y-10660580D01*
X12831880Y-10609580D02*
X12933880Y-10609580D01*
X12882880Y-12336580D02*
X12882880Y-12438580D01*
X12831880Y-12387580D02*
X12933880Y-12387580D01*
X13113880Y-11193580D02*
X13113880Y-11295580D01*
X13062880Y-11244580D02*
X13164880Y-11244580D01*
X13113880Y-11447580D02*
X13113880Y-11549580D01*
X13062880Y-11498580D02*
X13164880Y-11498580D01*
X13113880Y-11701580D02*
X13113880Y-11803580D01*
X13062880Y-11752580D02*
X13164880Y-11752580D01*
X13136880Y-10558580D02*
X13136880Y-10660580D01*
X13085880Y-10609580D02*
X13187880Y-10609580D01*
X13136880Y-12336580D02*
X13136880Y-12438580D01*
X13085880Y-12387580D02*
X13187880Y-12387580D01*
D11*
X8380619Y-17640720D02*
X8380619Y-17440720D01*
X8428238Y-17440720D01*
X8456810Y-17450243D01*
X8475857Y-17469291D01*
X8485381Y-17488339D01*
X8494905Y-17526434D01*
X8494905Y-17555005D01*
X8485381Y-17593101D01*
X8475857Y-17612148D01*
X8456810Y-17631196D01*
X8428238Y-17640720D01*
X8380619Y-17640720D01*
X8580619Y-17640720D02*
X8580619Y-17507386D01*
X8580619Y-17545481D02*
X8590143Y-17526434D01*
X8599667Y-17516910D01*
X8618714Y-17507386D01*
X8637762Y-17507386D01*
X8704429Y-17640720D02*
X8704429Y-17507386D01*
X8704429Y-17440720D02*
X8694905Y-17450243D01*
X8704429Y-17459767D01*
X8713952Y-17450243D01*
X8704429Y-17440720D01*
X8704429Y-17459767D01*
X8828238Y-17640720D02*
X8809190Y-17631196D01*
X8799667Y-17612148D01*
X8799667Y-17440720D01*
X8933000Y-17640720D02*
X8913952Y-17631196D01*
X8904429Y-17612148D01*
X8904429Y-17440720D01*
X9161571Y-17640720D02*
X9161571Y-17440720D01*
X9228238Y-17583577D01*
X9294905Y-17440720D01*
X9294905Y-17640720D01*
X9475857Y-17640720D02*
X9475857Y-17535958D01*
X9466333Y-17516910D01*
X9447286Y-17507386D01*
X9409190Y-17507386D01*
X9390143Y-17516910D01*
X9475857Y-17631196D02*
X9456810Y-17640720D01*
X9409190Y-17640720D01*
X9390143Y-17631196D01*
X9380619Y-17612148D01*
X9380619Y-17593101D01*
X9390143Y-17574053D01*
X9409190Y-17564529D01*
X9456810Y-17564529D01*
X9475857Y-17555005D01*
X9571095Y-17507386D02*
X9571095Y-17707386D01*
X9571095Y-17516910D02*
X9590143Y-17507386D01*
X9628238Y-17507386D01*
X9647286Y-17516910D01*
X9656810Y-17526434D01*
X9666333Y-17545481D01*
X9666333Y-17602624D01*
X9656810Y-17621672D01*
X9647286Y-17631196D01*
X9628238Y-17640720D01*
X9590143Y-17640720D01*
X9571095Y-17631196D01*
X9752048Y-17621672D02*
X9761571Y-17631196D01*
X9752048Y-17640720D01*
X9742524Y-17631196D01*
X9752048Y-17621672D01*
X9752048Y-17640720D01*
X9752048Y-17516910D02*
X9761571Y-17526434D01*
X9752048Y-17535958D01*
X9742524Y-17526434D01*
X9752048Y-17516910D01*
X9752048Y-17535958D01*
D12*
X8095060Y-17956273D02*
X8123000Y-17984213D01*
X8123000Y-17956273D02*
X8095060Y-17984213D01*
D11*
X8418714Y-17860720D02*
X8437762Y-17860720D01*
X8456810Y-17870243D01*
X8466333Y-17879767D01*
X8475857Y-17898815D01*
X8485381Y-17936910D01*
X8485381Y-17984529D01*
X8475857Y-18022624D01*
X8466333Y-18041672D01*
X8456810Y-18051196D01*
X8437762Y-18060720D01*
X8418714Y-18060720D01*
X8399667Y-18051196D01*
X8390143Y-18041672D01*
X8380619Y-18022624D01*
X8371095Y-17984529D01*
X8371095Y-17936910D01*
X8380619Y-17898815D01*
X8390143Y-17879767D01*
X8399667Y-17870243D01*
X8418714Y-17860720D01*
X8571095Y-18041672D02*
X8580619Y-18051196D01*
X8571095Y-18060720D01*
X8561571Y-18051196D01*
X8571095Y-18041672D01*
X8571095Y-18060720D01*
X8656810Y-17879767D02*
X8666333Y-17870243D01*
X8685381Y-17860720D01*
X8733000Y-17860720D01*
X8752048Y-17870243D01*
X8761571Y-17879767D01*
X8771095Y-17898815D01*
X8771095Y-17917862D01*
X8761571Y-17946434D01*
X8647286Y-18060720D01*
X8771095Y-18060720D01*
X8837762Y-17860720D02*
X8971095Y-17860720D01*
X8885381Y-18060720D01*
X9056810Y-18060720D02*
X9094905Y-18060720D01*
X9113952Y-18051196D01*
X9123476Y-18041672D01*
X9142524Y-18013101D01*
X9152048Y-17975005D01*
X9152048Y-17898815D01*
X9142524Y-17879767D01*
X9133000Y-17870243D01*
X9113952Y-17860720D01*
X9075857Y-17860720D01*
X9056810Y-17870243D01*
X9047286Y-17879767D01*
X9037762Y-17898815D01*
X9037762Y-17946434D01*
X9047286Y-17965481D01*
X9056810Y-17975005D01*
X9075857Y-17984529D01*
X9113952Y-17984529D01*
X9133000Y-17975005D01*
X9142524Y-17965481D01*
X9152048Y-17946434D01*
X9237762Y-18060720D02*
X9237762Y-17927386D01*
X9237762Y-17946434D02*
X9247286Y-17936910D01*
X9266333Y-17927386D01*
X9294905Y-17927386D01*
X9313952Y-17936910D01*
X9323476Y-17955958D01*
X9323476Y-18060720D01*
X9323476Y-17955958D02*
X9333000Y-17936910D01*
X9352048Y-17927386D01*
X9380619Y-17927386D01*
X9399667Y-17936910D01*
X9409190Y-17955958D01*
X9409190Y-18060720D01*
X9504429Y-18060720D02*
X9504429Y-17927386D01*
X9504429Y-17946434D02*
X9513952Y-17936910D01*
X9533000Y-17927386D01*
X9561571Y-17927386D01*
X9580619Y-17936910D01*
X9590143Y-17955958D01*
X9590143Y-18060720D01*
X9590143Y-17955958D02*
X9599667Y-17936910D01*
X9618714Y-17927386D01*
X9647286Y-17927386D01*
X9666333Y-17936910D01*
X9675857Y-17955958D01*
X9675857Y-18060720D01*
X10066333Y-17851196D02*
X9894905Y-18108339D01*
X10323476Y-17860720D02*
X10342524Y-17860720D01*
X10361571Y-17870243D01*
X10371095Y-17879767D01*
X10380619Y-17898815D01*
X10390143Y-17936910D01*
X10390143Y-17984529D01*
X10380619Y-18022624D01*
X10371095Y-18041672D01*
X10361571Y-18051196D01*
X10342524Y-18060720D01*
X10323476Y-18060720D01*
X10304429Y-18051196D01*
X10294905Y-18041672D01*
X10285381Y-18022624D01*
X10275857Y-17984529D01*
X10275857Y-17936910D01*
X10285381Y-17898815D01*
X10294905Y-17879767D01*
X10304429Y-17870243D01*
X10323476Y-17860720D01*
X10475857Y-18041672D02*
X10485381Y-18051196D01*
X10475857Y-18060720D01*
X10466333Y-18051196D01*
X10475857Y-18041672D01*
X10475857Y-18060720D01*
X10609190Y-17860720D02*
X10628238Y-17860720D01*
X10647286Y-17870243D01*
X10656810Y-17879767D01*
X10666333Y-17898815D01*
X10675857Y-17936910D01*
X10675857Y-17984529D01*
X10666333Y-18022624D01*
X10656810Y-18041672D01*
X10647286Y-18051196D01*
X10628238Y-18060720D01*
X10609190Y-18060720D01*
X10590143Y-18051196D01*
X10580619Y-18041672D01*
X10571095Y-18022624D01*
X10561571Y-17984529D01*
X10561571Y-17936910D01*
X10571095Y-17898815D01*
X10580619Y-17879767D01*
X10590143Y-17870243D01*
X10609190Y-17860720D01*
X10866333Y-18060720D02*
X10752048Y-18060720D01*
X10809190Y-18060720D02*
X10809190Y-17860720D01*
X10790143Y-17889291D01*
X10771095Y-17908339D01*
X10752048Y-17917862D01*
X11056810Y-18060720D02*
X10942524Y-18060720D01*
X10999667Y-18060720D02*
X10999667Y-17860720D01*
X10980619Y-17889291D01*
X10961571Y-17908339D01*
X10942524Y-17917862D01*
X11180619Y-17860720D02*
X11199667Y-17860720D01*
X11218714Y-17870243D01*
X11228238Y-17879767D01*
X11237762Y-17898815D01*
X11247286Y-17936910D01*
X11247286Y-17984529D01*
X11237762Y-18022624D01*
X11228238Y-18041672D01*
X11218714Y-18051196D01*
X11199667Y-18060720D01*
X11180619Y-18060720D01*
X11161571Y-18051196D01*
X11152048Y-18041672D01*
X11142524Y-18022624D01*
X11133000Y-17984529D01*
X11133000Y-17936910D01*
X11142524Y-17898815D01*
X11152048Y-17879767D01*
X11161571Y-17870243D01*
X11180619Y-17860720D01*
X11323476Y-17860720D02*
X11323476Y-17898815D01*
X11399667Y-17860720D02*
X11399667Y-17898815D01*
X11694905Y-18136910D02*
X11685381Y-18127386D01*
X11666333Y-18098815D01*
X11656809Y-18079767D01*
X11647286Y-18051196D01*
X11637762Y-18003577D01*
X11637762Y-17965481D01*
X11647286Y-17917862D01*
X11656809Y-17889291D01*
X11666333Y-17870243D01*
X11685381Y-17841672D01*
X11694905Y-17832148D01*
X11875857Y-18060720D02*
X11761571Y-18060720D01*
X11818714Y-18060720D02*
X11818714Y-17860720D01*
X11799667Y-17889291D01*
X11780619Y-17908339D01*
X11761571Y-17917862D01*
X12066333Y-18060720D02*
X11952048Y-18060720D01*
X12009190Y-18060720D02*
X12009190Y-17860720D01*
X11990143Y-17889291D01*
X11971095Y-17908339D01*
X11952048Y-17917862D01*
X12247286Y-17860720D02*
X12152048Y-17860720D01*
X12142524Y-17955958D01*
X12152048Y-17946434D01*
X12171095Y-17936910D01*
X12218714Y-17936910D01*
X12237762Y-17946434D01*
X12247286Y-17955958D01*
X12256809Y-17975005D01*
X12256809Y-18022624D01*
X12247286Y-18041672D01*
X12237762Y-18051196D01*
X12218714Y-18060720D01*
X12171095Y-18060720D01*
X12152048Y-18051196D01*
X12142524Y-18041672D01*
X12494905Y-18060720D02*
X12494905Y-17860720D01*
X12580619Y-18060720D02*
X12580619Y-17955958D01*
X12571095Y-17936910D01*
X12552048Y-17927386D01*
X12523476Y-17927386D01*
X12504428Y-17936910D01*
X12494905Y-17946434D01*
X12704428Y-18060720D02*
X12685381Y-18051196D01*
X12675857Y-18041672D01*
X12666333Y-18022624D01*
X12666333Y-17965481D01*
X12675857Y-17946434D01*
X12685381Y-17936910D01*
X12704428Y-17927386D01*
X12733000Y-17927386D01*
X12752048Y-17936910D01*
X12761571Y-17946434D01*
X12771095Y-17965481D01*
X12771095Y-18022624D01*
X12761571Y-18041672D01*
X12752048Y-18051196D01*
X12733000Y-18060720D01*
X12704428Y-18060720D01*
X12885381Y-18060720D02*
X12866333Y-18051196D01*
X12856809Y-18032148D01*
X12856809Y-17860720D01*
X13037762Y-18051196D02*
X13018714Y-18060720D01*
X12980619Y-18060720D01*
X12961571Y-18051196D01*
X12952048Y-18032148D01*
X12952048Y-17955958D01*
X12961571Y-17936910D01*
X12980619Y-17927386D01*
X13018714Y-17927386D01*
X13037762Y-17936910D01*
X13047286Y-17955958D01*
X13047286Y-17975005D01*
X12952048Y-17994053D01*
X13123476Y-18051196D02*
X13142524Y-18060720D01*
X13180619Y-18060720D01*
X13199667Y-18051196D01*
X13209190Y-18032148D01*
X13209190Y-18022624D01*
X13199667Y-18003577D01*
X13180619Y-17994053D01*
X13152048Y-17994053D01*
X13133000Y-17984529D01*
X13123476Y-17965481D01*
X13123476Y-17955958D01*
X13133000Y-17936910D01*
X13152048Y-17927386D01*
X13180619Y-17927386D01*
X13199667Y-17936910D01*
X13275857Y-18136910D02*
X13285381Y-18127386D01*
X13304428Y-18098815D01*
X13313952Y-18079767D01*
X13323476Y-18051196D01*
X13333000Y-18003577D01*
X13333000Y-17965481D01*
X13323476Y-17917862D01*
X13313952Y-17889291D01*
X13304428Y-17870243D01*
X13285381Y-17841672D01*
X13275857Y-17832148D01*
D13*
X8123000Y-18234243D02*
G75*
G03*
X8123000Y-18234243I-37500J0D01*
G01*
D11*
X8418714Y-18124720D02*
X8437762Y-18124720D01*
X8456810Y-18134243D01*
X8466333Y-18143767D01*
X8475857Y-18162815D01*
X8485381Y-18200910D01*
X8485381Y-18248529D01*
X8475857Y-18286624D01*
X8466333Y-18305672D01*
X8456810Y-18315196D01*
X8437762Y-18324720D01*
X8418714Y-18324720D01*
X8399667Y-18315196D01*
X8390143Y-18305672D01*
X8380619Y-18286624D01*
X8371095Y-18248529D01*
X8371095Y-18200910D01*
X8380619Y-18162815D01*
X8390143Y-18143767D01*
X8399667Y-18134243D01*
X8418714Y-18124720D01*
X8571095Y-18305672D02*
X8580619Y-18315196D01*
X8571095Y-18324720D01*
X8561571Y-18315196D01*
X8571095Y-18305672D01*
X8571095Y-18324720D01*
X8647286Y-18124720D02*
X8780619Y-18124720D01*
X8694905Y-18324720D01*
X8952048Y-18124720D02*
X8856810Y-18124720D01*
X8847286Y-18219958D01*
X8856810Y-18210434D01*
X8875857Y-18200910D01*
X8923476Y-18200910D01*
X8942524Y-18210434D01*
X8952048Y-18219958D01*
X8961571Y-18239005D01*
X8961571Y-18286624D01*
X8952048Y-18305672D01*
X8942524Y-18315196D01*
X8923476Y-18324720D01*
X8875857Y-18324720D01*
X8856810Y-18315196D01*
X8847286Y-18305672D01*
X9085381Y-18124720D02*
X9104429Y-18124720D01*
X9123476Y-18134243D01*
X9133000Y-18143767D01*
X9142524Y-18162815D01*
X9152048Y-18200910D01*
X9152048Y-18248529D01*
X9142524Y-18286624D01*
X9133000Y-18305672D01*
X9123476Y-18315196D01*
X9104429Y-18324720D01*
X9085381Y-18324720D01*
X9066333Y-18315196D01*
X9056810Y-18305672D01*
X9047286Y-18286624D01*
X9037762Y-18248529D01*
X9037762Y-18200910D01*
X9047286Y-18162815D01*
X9056810Y-18143767D01*
X9066333Y-18134243D01*
X9085381Y-18124720D01*
X9237762Y-18324720D02*
X9237762Y-18191386D01*
X9237762Y-18210434D02*
X9247286Y-18200910D01*
X9266333Y-18191386D01*
X9294905Y-18191386D01*
X9313952Y-18200910D01*
X9323476Y-18219958D01*
X9323476Y-18324720D01*
X9323476Y-18219958D02*
X9333000Y-18200910D01*
X9352048Y-18191386D01*
X9380619Y-18191386D01*
X9399667Y-18200910D01*
X9409190Y-18219958D01*
X9409190Y-18324720D01*
X9504429Y-18324720D02*
X9504429Y-18191386D01*
X9504429Y-18210434D02*
X9513952Y-18200910D01*
X9533000Y-18191386D01*
X9561571Y-18191386D01*
X9580619Y-18200910D01*
X9590143Y-18219958D01*
X9590143Y-18324720D01*
X9590143Y-18219958D02*
X9599667Y-18200910D01*
X9618714Y-18191386D01*
X9647286Y-18191386D01*
X9666333Y-18200910D01*
X9675857Y-18219958D01*
X9675857Y-18324720D01*
X10066333Y-18115196D02*
X9894905Y-18372339D01*
X10323476Y-18124720D02*
X10342524Y-18124720D01*
X10361571Y-18134243D01*
X10371095Y-18143767D01*
X10380619Y-18162815D01*
X10390143Y-18200910D01*
X10390143Y-18248529D01*
X10380619Y-18286624D01*
X10371095Y-18305672D01*
X10361571Y-18315196D01*
X10342524Y-18324720D01*
X10323476Y-18324720D01*
X10304429Y-18315196D01*
X10294905Y-18305672D01*
X10285381Y-18286624D01*
X10275857Y-18248529D01*
X10275857Y-18200910D01*
X10285381Y-18162815D01*
X10294905Y-18143767D01*
X10304429Y-18134243D01*
X10323476Y-18124720D01*
X10475857Y-18305672D02*
X10485381Y-18315196D01*
X10475857Y-18324720D01*
X10466333Y-18315196D01*
X10475857Y-18305672D01*
X10475857Y-18324720D01*
X10609190Y-18124720D02*
X10628238Y-18124720D01*
X10647286Y-18134243D01*
X10656810Y-18143767D01*
X10666333Y-18162815D01*
X10675857Y-18200910D01*
X10675857Y-18248529D01*
X10666333Y-18286624D01*
X10656810Y-18305672D01*
X10647286Y-18315196D01*
X10628238Y-18324720D01*
X10609190Y-18324720D01*
X10590143Y-18315196D01*
X10580619Y-18305672D01*
X10571095Y-18286624D01*
X10561571Y-18248529D01*
X10561571Y-18200910D01*
X10571095Y-18162815D01*
X10580619Y-18143767D01*
X10590143Y-18134243D01*
X10609190Y-18124720D01*
X10752048Y-18143767D02*
X10761571Y-18134243D01*
X10780619Y-18124720D01*
X10828238Y-18124720D01*
X10847286Y-18134243D01*
X10856810Y-18143767D01*
X10866333Y-18162815D01*
X10866333Y-18181862D01*
X10856810Y-18210434D01*
X10742524Y-18324720D01*
X10866333Y-18324720D01*
X10961571Y-18324720D02*
X10999667Y-18324720D01*
X11018714Y-18315196D01*
X11028238Y-18305672D01*
X11047286Y-18277101D01*
X11056810Y-18239005D01*
X11056810Y-18162815D01*
X11047286Y-18143767D01*
X11037762Y-18134243D01*
X11018714Y-18124720D01*
X10980619Y-18124720D01*
X10961571Y-18134243D01*
X10952048Y-18143767D01*
X10942524Y-18162815D01*
X10942524Y-18210434D01*
X10952048Y-18229481D01*
X10961571Y-18239005D01*
X10980619Y-18248529D01*
X11018714Y-18248529D01*
X11037762Y-18239005D01*
X11047286Y-18229481D01*
X11056810Y-18210434D01*
X11237762Y-18124720D02*
X11142524Y-18124720D01*
X11133000Y-18219958D01*
X11142524Y-18210434D01*
X11161571Y-18200910D01*
X11209190Y-18200910D01*
X11228238Y-18210434D01*
X11237762Y-18219958D01*
X11247286Y-18239005D01*
X11247286Y-18286624D01*
X11237762Y-18305672D01*
X11228238Y-18315196D01*
X11209190Y-18324720D01*
X11161571Y-18324720D01*
X11142524Y-18315196D01*
X11133000Y-18305672D01*
X11323476Y-18124720D02*
X11323476Y-18162815D01*
X11399667Y-18124720D02*
X11399667Y-18162815D01*
X11694905Y-18400910D02*
X11685381Y-18391386D01*
X11666333Y-18362815D01*
X11656809Y-18343767D01*
X11647286Y-18315196D01*
X11637762Y-18267577D01*
X11637762Y-18229481D01*
X11647286Y-18181862D01*
X11656809Y-18153291D01*
X11666333Y-18134243D01*
X11685381Y-18105672D01*
X11694905Y-18096148D01*
X11761571Y-18143767D02*
X11771095Y-18134243D01*
X11790143Y-18124720D01*
X11837762Y-18124720D01*
X11856809Y-18134243D01*
X11866333Y-18143767D01*
X11875857Y-18162815D01*
X11875857Y-18181862D01*
X11866333Y-18210434D01*
X11752048Y-18324720D01*
X11875857Y-18324720D01*
X12113952Y-18324720D02*
X12113952Y-18124720D01*
X12199667Y-18324720D02*
X12199667Y-18219958D01*
X12190143Y-18200910D01*
X12171095Y-18191386D01*
X12142524Y-18191386D01*
X12123476Y-18200910D01*
X12113952Y-18210434D01*
X12323476Y-18324720D02*
X12304428Y-18315196D01*
X12294905Y-18305672D01*
X12285381Y-18286624D01*
X12285381Y-18229481D01*
X12294905Y-18210434D01*
X12304428Y-18200910D01*
X12323476Y-18191386D01*
X12352048Y-18191386D01*
X12371095Y-18200910D01*
X12380619Y-18210434D01*
X12390143Y-18229481D01*
X12390143Y-18286624D01*
X12380619Y-18305672D01*
X12371095Y-18315196D01*
X12352048Y-18324720D01*
X12323476Y-18324720D01*
X12504428Y-18324720D02*
X12485381Y-18315196D01*
X12475857Y-18296148D01*
X12475857Y-18124720D01*
X12656809Y-18315196D02*
X12637762Y-18324720D01*
X12599667Y-18324720D01*
X12580619Y-18315196D01*
X12571095Y-18296148D01*
X12571095Y-18219958D01*
X12580619Y-18200910D01*
X12599667Y-18191386D01*
X12637762Y-18191386D01*
X12656809Y-18200910D01*
X12666333Y-18219958D01*
X12666333Y-18239005D01*
X12571095Y-18258053D01*
X12742524Y-18315196D02*
X12761571Y-18324720D01*
X12799667Y-18324720D01*
X12818714Y-18315196D01*
X12828238Y-18296148D01*
X12828238Y-18286624D01*
X12818714Y-18267577D01*
X12799667Y-18258053D01*
X12771095Y-18258053D01*
X12752048Y-18248529D01*
X12742524Y-18229481D01*
X12742524Y-18219958D01*
X12752048Y-18200910D01*
X12771095Y-18191386D01*
X12799667Y-18191386D01*
X12818714Y-18200910D01*
X12894905Y-18400910D02*
X12904428Y-18391386D01*
X12923476Y-18362815D01*
X12933000Y-18343767D01*
X12942524Y-18315196D01*
X12952048Y-18267577D01*
X12952048Y-18229481D01*
X12942524Y-18181862D01*
X12933000Y-18153291D01*
X12923476Y-18134243D01*
X12904428Y-18105672D01*
X12894905Y-18096148D01*
D14*
X8072000Y-18447243D02*
X8072000Y-18549243D01*
X8021000Y-18498243D02*
X8123000Y-18498243D01*
D11*
X8485381Y-18588720D02*
X8371095Y-18588720D01*
X8428238Y-18588720D02*
X8428238Y-18388720D01*
X8409190Y-18417291D01*
X8390143Y-18436339D01*
X8371095Y-18445862D01*
X8571095Y-18569672D02*
X8580619Y-18579196D01*
X8571095Y-18588720D01*
X8561571Y-18579196D01*
X8571095Y-18569672D01*
X8571095Y-18588720D01*
X8704429Y-18388720D02*
X8723476Y-18388720D01*
X8742524Y-18398243D01*
X8752048Y-18407767D01*
X8761571Y-18426815D01*
X8771095Y-18464910D01*
X8771095Y-18512529D01*
X8761571Y-18550624D01*
X8752048Y-18569672D01*
X8742524Y-18579196D01*
X8723476Y-18588720D01*
X8704429Y-18588720D01*
X8685381Y-18579196D01*
X8675857Y-18569672D01*
X8666333Y-18550624D01*
X8656810Y-18512529D01*
X8656810Y-18464910D01*
X8666333Y-18426815D01*
X8675857Y-18407767D01*
X8685381Y-18398243D01*
X8704429Y-18388720D01*
X8847286Y-18407767D02*
X8856810Y-18398243D01*
X8875857Y-18388720D01*
X8923476Y-18388720D01*
X8942524Y-18398243D01*
X8952048Y-18407767D01*
X8961571Y-18426815D01*
X8961571Y-18445862D01*
X8952048Y-18474434D01*
X8837762Y-18588720D01*
X8961571Y-18588720D01*
X9085381Y-18388720D02*
X9104429Y-18388720D01*
X9123476Y-18398243D01*
X9133000Y-18407767D01*
X9142524Y-18426815D01*
X9152048Y-18464910D01*
X9152048Y-18512529D01*
X9142524Y-18550624D01*
X9133000Y-18569672D01*
X9123476Y-18579196D01*
X9104429Y-18588720D01*
X9085381Y-18588720D01*
X9066333Y-18579196D01*
X9056810Y-18569672D01*
X9047286Y-18550624D01*
X9037762Y-18512529D01*
X9037762Y-18464910D01*
X9047286Y-18426815D01*
X9056810Y-18407767D01*
X9066333Y-18398243D01*
X9085381Y-18388720D01*
X9237762Y-18588720D02*
X9237762Y-18455386D01*
X9237762Y-18474434D02*
X9247286Y-18464910D01*
X9266333Y-18455386D01*
X9294905Y-18455386D01*
X9313952Y-18464910D01*
X9323476Y-18483958D01*
X9323476Y-18588720D01*
X9323476Y-18483958D02*
X9333000Y-18464910D01*
X9352048Y-18455386D01*
X9380619Y-18455386D01*
X9399667Y-18464910D01*
X9409190Y-18483958D01*
X9409190Y-18588720D01*
X9504429Y-18588720D02*
X9504429Y-18455386D01*
X9504429Y-18474434D02*
X9513952Y-18464910D01*
X9533000Y-18455386D01*
X9561571Y-18455386D01*
X9580619Y-18464910D01*
X9590143Y-18483958D01*
X9590143Y-18588720D01*
X9590143Y-18483958D02*
X9599667Y-18464910D01*
X9618714Y-18455386D01*
X9647286Y-18455386D01*
X9666333Y-18464910D01*
X9675857Y-18483958D01*
X9675857Y-18588720D01*
X10066333Y-18379196D02*
X9894905Y-18636339D01*
X10323476Y-18388720D02*
X10342524Y-18388720D01*
X10361571Y-18398243D01*
X10371095Y-18407767D01*
X10380619Y-18426815D01*
X10390143Y-18464910D01*
X10390143Y-18512529D01*
X10380619Y-18550624D01*
X10371095Y-18569672D01*
X10361571Y-18579196D01*
X10342524Y-18588720D01*
X10323476Y-18588720D01*
X10304429Y-18579196D01*
X10294905Y-18569672D01*
X10285381Y-18550624D01*
X10275857Y-18512529D01*
X10275857Y-18464910D01*
X10285381Y-18426815D01*
X10294905Y-18407767D01*
X10304429Y-18398243D01*
X10323476Y-18388720D01*
X10475857Y-18569672D02*
X10485381Y-18579196D01*
X10475857Y-18588720D01*
X10466333Y-18579196D01*
X10475857Y-18569672D01*
X10475857Y-18588720D01*
X10609190Y-18388720D02*
X10628238Y-18388720D01*
X10647286Y-18398243D01*
X10656810Y-18407767D01*
X10666333Y-18426815D01*
X10675857Y-18464910D01*
X10675857Y-18512529D01*
X10666333Y-18550624D01*
X10656810Y-18569672D01*
X10647286Y-18579196D01*
X10628238Y-18588720D01*
X10609190Y-18588720D01*
X10590143Y-18579196D01*
X10580619Y-18569672D01*
X10571095Y-18550624D01*
X10561571Y-18512529D01*
X10561571Y-18464910D01*
X10571095Y-18426815D01*
X10580619Y-18407767D01*
X10590143Y-18398243D01*
X10609190Y-18388720D01*
X10847286Y-18455386D02*
X10847286Y-18588720D01*
X10799667Y-18379196D02*
X10752048Y-18522053D01*
X10875857Y-18522053D01*
X10990143Y-18388720D02*
X11009190Y-18388720D01*
X11028238Y-18398243D01*
X11037762Y-18407767D01*
X11047286Y-18426815D01*
X11056810Y-18464910D01*
X11056810Y-18512529D01*
X11047286Y-18550624D01*
X11037762Y-18569672D01*
X11028238Y-18579196D01*
X11009190Y-18588720D01*
X10990143Y-18588720D01*
X10971095Y-18579196D01*
X10961571Y-18569672D01*
X10952048Y-18550624D01*
X10942524Y-18512529D01*
X10942524Y-18464910D01*
X10952048Y-18426815D01*
X10961571Y-18407767D01*
X10971095Y-18398243D01*
X10990143Y-18388720D01*
X11133000Y-18407767D02*
X11142524Y-18398243D01*
X11161571Y-18388720D01*
X11209190Y-18388720D01*
X11228238Y-18398243D01*
X11237762Y-18407767D01*
X11247286Y-18426815D01*
X11247286Y-18445862D01*
X11237762Y-18474434D01*
X11123476Y-18588720D01*
X11247286Y-18588720D01*
X11323476Y-18388720D02*
X11323476Y-18426815D01*
X11399667Y-18388720D02*
X11399667Y-18426815D01*
X11694905Y-18664910D02*
X11685381Y-18655386D01*
X11666333Y-18626815D01*
X11656809Y-18607767D01*
X11647286Y-18579196D01*
X11637762Y-18531577D01*
X11637762Y-18493481D01*
X11647286Y-18445862D01*
X11656809Y-18417291D01*
X11666333Y-18398243D01*
X11685381Y-18369672D01*
X11694905Y-18360148D01*
X11856809Y-18455386D02*
X11856809Y-18588720D01*
X11809190Y-18379196D02*
X11761571Y-18522053D01*
X11885381Y-18522053D01*
X11942524Y-18388720D02*
X12066333Y-18388720D01*
X11999667Y-18464910D01*
X12028238Y-18464910D01*
X12047286Y-18474434D01*
X12056809Y-18483958D01*
X12066333Y-18503005D01*
X12066333Y-18550624D01*
X12056809Y-18569672D01*
X12047286Y-18579196D01*
X12028238Y-18588720D01*
X11971095Y-18588720D01*
X11952048Y-18579196D01*
X11942524Y-18569672D01*
X12304428Y-18588720D02*
X12304428Y-18388720D01*
X12390143Y-18588720D02*
X12390143Y-18483958D01*
X12380619Y-18464910D01*
X12361571Y-18455386D01*
X12333000Y-18455386D01*
X12313952Y-18464910D01*
X12304428Y-18474434D01*
X12513952Y-18588720D02*
X12494905Y-18579196D01*
X12485381Y-18569672D01*
X12475857Y-18550624D01*
X12475857Y-18493481D01*
X12485381Y-18474434D01*
X12494905Y-18464910D01*
X12513952Y-18455386D01*
X12542524Y-18455386D01*
X12561571Y-18464910D01*
X12571095Y-18474434D01*
X12580619Y-18493481D01*
X12580619Y-18550624D01*
X12571095Y-18569672D01*
X12561571Y-18579196D01*
X12542524Y-18588720D01*
X12513952Y-18588720D01*
X12694905Y-18588720D02*
X12675857Y-18579196D01*
X12666333Y-18560148D01*
X12666333Y-18388720D01*
X12847286Y-18579196D02*
X12828238Y-18588720D01*
X12790143Y-18588720D01*
X12771095Y-18579196D01*
X12761571Y-18560148D01*
X12761571Y-18483958D01*
X12771095Y-18464910D01*
X12790143Y-18455386D01*
X12828238Y-18455386D01*
X12847286Y-18464910D01*
X12856809Y-18483958D01*
X12856809Y-18503005D01*
X12761571Y-18522053D01*
X12933000Y-18579196D02*
X12952048Y-18588720D01*
X12990143Y-18588720D01*
X13009190Y-18579196D01*
X13018714Y-18560148D01*
X13018714Y-18550624D01*
X13009190Y-18531577D01*
X12990143Y-18522053D01*
X12961571Y-18522053D01*
X12942524Y-18512529D01*
X12933000Y-18493481D01*
X12933000Y-18483958D01*
X12942524Y-18464910D01*
X12961571Y-18455386D01*
X12990143Y-18455386D01*
X13009190Y-18464910D01*
X13085381Y-18664910D02*
X13094905Y-18655386D01*
X13113952Y-18626815D01*
X13123476Y-18607767D01*
X13133000Y-18579196D01*
X13142524Y-18531577D01*
X13142524Y-18493481D01*
X13133000Y-18445862D01*
X13123476Y-18417291D01*
X13113952Y-18398243D01*
X13094905Y-18369672D01*
X13085381Y-18360148D01*
M02*
