G04 #@! TF.GenerationSoftware,KiCad,Pcbnew,6.0.7+dfsg-1~bpo11+1*
G04 #@! TF.CreationDate,2023-01-24T09:36:57+00:00*
G04 #@! TF.ProjectId,aws-iot-expresslink-demo-badge,6177732d-696f-4742-9d65-787072657373,1*
G04 #@! TF.SameCoordinates,Original*
G04 #@! TF.FileFunction,Paste,Top*
G04 #@! TF.FilePolarity,Positive*
%FSLAX46Y46*%
G04 Gerber Fmt 4.6, Leading zero omitted, Abs format (unit mm)*
G04 Created by KiCad (PCBNEW 6.0.7+dfsg-1~bpo11+1) date 2023-01-24 09:36:57*
%MOMM*%
%LPD*%
G01*
G04 APERTURE LIST*
%ADD10C,0.010000*%
%ADD11R,0.800000X0.800000*%
%ADD12R,0.711200X0.990600*%
%ADD13R,0.800000X0.400000*%
%ADD14R,0.400000X0.800000*%
%ADD15R,1.450000X1.450000*%
%ADD16R,0.700000X0.700000*%
%ADD17R,0.558800X0.889000*%
%ADD18R,0.990600X0.711200*%
%ADD19R,0.550000X0.250000*%
%ADD20R,1.193800X2.489200*%
G04 APERTURE END LIST*
G36*
X136942983Y-151292979D02*
G01*
X136542983Y-151292979D01*
X136542983Y-151072979D01*
X136942983Y-151072979D01*
X136942983Y-151292979D01*
G37*
D10*
X136942983Y-151292979D02*
X136542983Y-151292979D01*
X136542983Y-151072979D01*
X136942983Y-151072979D01*
X136942983Y-151292979D01*
G36*
X135745580Y-151290527D02*
G01*
X135345580Y-151290527D01*
X135345580Y-151070527D01*
X135745580Y-151070527D01*
X135745580Y-151290527D01*
G37*
X135745580Y-151290527D02*
X135345580Y-151290527D01*
X135345580Y-151070527D01*
X135745580Y-151070527D01*
X135745580Y-151290527D01*
G36*
X136754000Y-151980800D02*
G01*
X136534000Y-151980800D01*
X136534000Y-151580800D01*
X136754000Y-151580800D01*
X136754000Y-151980800D01*
G37*
X136754000Y-151980800D02*
X136534000Y-151980800D01*
X136534000Y-151580800D01*
X136754000Y-151580800D01*
X136754000Y-151980800D01*
G36*
X136254000Y-150780800D02*
G01*
X136034000Y-150780800D01*
X136034000Y-150380800D01*
X136254000Y-150380800D01*
X136254000Y-150780800D01*
G37*
X136254000Y-150780800D02*
X136034000Y-150780800D01*
X136034000Y-150380800D01*
X136254000Y-150380800D01*
X136254000Y-150780800D01*
G36*
X136254000Y-151980800D02*
G01*
X136034000Y-151980800D01*
X136034000Y-151580800D01*
X136254000Y-151580800D01*
X136254000Y-151980800D01*
G37*
X136254000Y-151980800D02*
X136034000Y-151980800D01*
X136034000Y-151580800D01*
X136254000Y-151580800D01*
X136254000Y-151980800D01*
G36*
X135754000Y-150780800D02*
G01*
X135534000Y-150780800D01*
X135534000Y-150380800D01*
X135754000Y-150380800D01*
X135754000Y-150780800D01*
G37*
X135754000Y-150780800D02*
X135534000Y-150780800D01*
X135534000Y-150380800D01*
X135754000Y-150380800D01*
X135754000Y-150780800D01*
G36*
X136754000Y-150780800D02*
G01*
X136534000Y-150780800D01*
X136534000Y-150380800D01*
X136754000Y-150380800D01*
X136754000Y-150780800D01*
G37*
X136754000Y-150780800D02*
X136534000Y-150780800D01*
X136534000Y-150380800D01*
X136754000Y-150380800D01*
X136754000Y-150780800D01*
G36*
X135754000Y-151980800D02*
G01*
X135434000Y-151980800D01*
X135434000Y-151580800D01*
X135754000Y-151580800D01*
X135754000Y-151980800D01*
G37*
X135754000Y-151980800D02*
X135434000Y-151980800D01*
X135434000Y-151580800D01*
X135754000Y-151580800D01*
X135754000Y-151980800D01*
D11*
X92156700Y-135839200D03*
X93656700Y-135839200D03*
G36*
X124067884Y-168475047D02*
G01*
X123944385Y-167774651D01*
X124919936Y-167602635D01*
X125043435Y-168303031D01*
X124067884Y-168475047D01*
G37*
G36*
X128499521Y-167693630D02*
G01*
X128376022Y-166993234D01*
X129351573Y-166821218D01*
X129475072Y-167521614D01*
X128499521Y-167693630D01*
G37*
G36*
X124441227Y-170592382D02*
G01*
X124317728Y-169891986D01*
X125293279Y-169719970D01*
X125416778Y-170420366D01*
X124441227Y-170592382D01*
G37*
G36*
X128872864Y-169810965D02*
G01*
X128749365Y-169110569D01*
X129724916Y-168938553D01*
X129848415Y-169638949D01*
X128872864Y-169810965D01*
G37*
D12*
X83845400Y-97652401D03*
X83845400Y-93152399D03*
X85995398Y-97652401D03*
X85995398Y-93152399D03*
G36*
X92317728Y-167521614D02*
G01*
X92441227Y-166821218D01*
X93416778Y-166993234D01*
X93293279Y-167693630D01*
X92317728Y-167521614D01*
G37*
G36*
X96749365Y-168303031D02*
G01*
X96872864Y-167602635D01*
X97848415Y-167774651D01*
X97724916Y-168475047D01*
X96749365Y-168303031D01*
G37*
G36*
X91944385Y-169638949D02*
G01*
X92067884Y-168938553D01*
X93043435Y-169110569D01*
X92919936Y-169810965D01*
X91944385Y-169638949D01*
G37*
G36*
X96376022Y-170420366D02*
G01*
X96499521Y-169719970D01*
X97475072Y-169891986D01*
X97351573Y-170592382D01*
X96376022Y-170420366D01*
G37*
D13*
X104996400Y-87440000D03*
X104996400Y-88240000D03*
X104996400Y-89040000D03*
X104996400Y-89840000D03*
X104996400Y-90640000D03*
X104996400Y-91440000D03*
X104996400Y-92240000D03*
X104996400Y-93040000D03*
X104996400Y-93840000D03*
X104996400Y-94640000D03*
X104996400Y-95440000D03*
D14*
X106096400Y-96340000D03*
X106896400Y-96340000D03*
X107696400Y-96340000D03*
X108496400Y-96340000D03*
X109296400Y-96340000D03*
X110096400Y-96340000D03*
X110896400Y-96340000D03*
X111696400Y-96340000D03*
X112496400Y-96340000D03*
X113296400Y-96340000D03*
X114096400Y-96340000D03*
X114896400Y-96340000D03*
X115696400Y-96340000D03*
D13*
X116796400Y-95440000D03*
X116796400Y-94640000D03*
X116796400Y-93840000D03*
X116796400Y-93040000D03*
X116796400Y-92240000D03*
X116796400Y-91440000D03*
X116796400Y-90640000D03*
X116796400Y-89840000D03*
X116796400Y-89040000D03*
X116796400Y-88240000D03*
X116796400Y-87440000D03*
D15*
X108921400Y-93415000D03*
X112871400Y-93415000D03*
X112871400Y-89465000D03*
D14*
X106896400Y-86540000D03*
X110096400Y-86540000D03*
D15*
X110896400Y-89465000D03*
D14*
X109296400Y-86540000D03*
D16*
X104946400Y-86490000D03*
D14*
X111696400Y-86540000D03*
X114896400Y-86540000D03*
D16*
X116846400Y-96390000D03*
D14*
X114096400Y-86540000D03*
D15*
X108921400Y-91440000D03*
D16*
X116846400Y-86490000D03*
D15*
X110896400Y-91440000D03*
X110896400Y-93415000D03*
D14*
X110896400Y-86540000D03*
G36*
X109646400Y-90190000D02*
G01*
X108196400Y-90190000D01*
X108196400Y-89340000D01*
X108796400Y-88740000D01*
X109646400Y-88740000D01*
X109646400Y-90190000D01*
G37*
X108496400Y-86540000D03*
X107696400Y-86540000D03*
X112496400Y-86540000D03*
X115696400Y-86540000D03*
D16*
X104946400Y-96390000D03*
D14*
X113296400Y-86540000D03*
X106096400Y-86540000D03*
D15*
X112871400Y-91440000D03*
D17*
X94227299Y-136589201D03*
X94227299Y-135089199D03*
X91586101Y-135089199D03*
X91586101Y-136589201D03*
D18*
X108646399Y-169091801D03*
X113146401Y-169091801D03*
X108646399Y-171241799D03*
X113146401Y-171241799D03*
G36*
X86498499Y-134886600D02*
G01*
X85598499Y-134886600D01*
X85598499Y-133556600D01*
X85868499Y-133286600D01*
X86498499Y-133286600D01*
X86498499Y-134886600D01*
G37*
D19*
X84873499Y-133336600D03*
X84873499Y-133836600D03*
X84873499Y-134336600D03*
X84873499Y-134836600D03*
X87223499Y-134836600D03*
X87223499Y-134336600D03*
X87223499Y-133836600D03*
X87223499Y-133336600D03*
G36*
G01*
X130580000Y-129694300D02*
X130580000Y-129519300D01*
G75*
G02*
X130667500Y-129431800I87500J0D01*
G01*
X131042500Y-129431800D01*
G75*
G02*
X131130000Y-129519300I0J-87500D01*
G01*
X131130000Y-129694300D01*
G75*
G02*
X131042500Y-129781800I-87500J0D01*
G01*
X130667500Y-129781800D01*
G75*
G02*
X130580000Y-129694300I0J87500D01*
G01*
G37*
G36*
G01*
X130580000Y-130194300D02*
X130580000Y-130019300D01*
G75*
G02*
X130667500Y-129931800I87500J0D01*
G01*
X131042500Y-129931800D01*
G75*
G02*
X131130000Y-130019300I0J-87500D01*
G01*
X131130000Y-130194300D01*
G75*
G02*
X131042500Y-130281800I-87500J0D01*
G01*
X130667500Y-130281800D01*
G75*
G02*
X130580000Y-130194300I0J87500D01*
G01*
G37*
G36*
G01*
X130580000Y-130694300D02*
X130580000Y-130519300D01*
G75*
G02*
X130667500Y-130431800I87500J0D01*
G01*
X131042500Y-130431800D01*
G75*
G02*
X131130000Y-130519300I0J-87500D01*
G01*
X131130000Y-130694300D01*
G75*
G02*
X131042500Y-130781800I-87500J0D01*
G01*
X130667500Y-130781800D01*
G75*
G02*
X130580000Y-130694300I0J87500D01*
G01*
G37*
G36*
G01*
X130580000Y-131194300D02*
X130580000Y-131019300D01*
G75*
G02*
X130667500Y-130931800I87500J0D01*
G01*
X131042500Y-130931800D01*
G75*
G02*
X131130000Y-131019300I0J-87500D01*
G01*
X131130000Y-131194300D01*
G75*
G02*
X131042500Y-131281800I-87500J0D01*
G01*
X130667500Y-131281800D01*
G75*
G02*
X130580000Y-131194300I0J87500D01*
G01*
G37*
G36*
G01*
X130580000Y-131694300D02*
X130580000Y-131519300D01*
G75*
G02*
X130667500Y-131431800I87500J0D01*
G01*
X131042500Y-131431800D01*
G75*
G02*
X131130000Y-131519300I0J-87500D01*
G01*
X131130000Y-131694300D01*
G75*
G02*
X131042500Y-131781800I-87500J0D01*
G01*
X130667500Y-131781800D01*
G75*
G02*
X130580000Y-131694300I0J87500D01*
G01*
G37*
G36*
G01*
X131405000Y-132019300D02*
X131405000Y-131644300D01*
G75*
G02*
X131492500Y-131556800I87500J0D01*
G01*
X131667500Y-131556800D01*
G75*
G02*
X131755000Y-131644300I0J-87500D01*
G01*
X131755000Y-132019300D01*
G75*
G02*
X131667500Y-132106800I-87500J0D01*
G01*
X131492500Y-132106800D01*
G75*
G02*
X131405000Y-132019300I0J87500D01*
G01*
G37*
G36*
G01*
X131905000Y-132019300D02*
X131905000Y-131644300D01*
G75*
G02*
X131992500Y-131556800I87500J0D01*
G01*
X132167500Y-131556800D01*
G75*
G02*
X132255000Y-131644300I0J-87500D01*
G01*
X132255000Y-132019300D01*
G75*
G02*
X132167500Y-132106800I-87500J0D01*
G01*
X131992500Y-132106800D01*
G75*
G02*
X131905000Y-132019300I0J87500D01*
G01*
G37*
G36*
G01*
X132405000Y-132019300D02*
X132405000Y-131644300D01*
G75*
G02*
X132492500Y-131556800I87500J0D01*
G01*
X132667500Y-131556800D01*
G75*
G02*
X132755000Y-131644300I0J-87500D01*
G01*
X132755000Y-132019300D01*
G75*
G02*
X132667500Y-132106800I-87500J0D01*
G01*
X132492500Y-132106800D01*
G75*
G02*
X132405000Y-132019300I0J87500D01*
G01*
G37*
G36*
G01*
X133030000Y-131694300D02*
X133030000Y-131519300D01*
G75*
G02*
X133117500Y-131431800I87500J0D01*
G01*
X133492500Y-131431800D01*
G75*
G02*
X133580000Y-131519300I0J-87500D01*
G01*
X133580000Y-131694300D01*
G75*
G02*
X133492500Y-131781800I-87500J0D01*
G01*
X133117500Y-131781800D01*
G75*
G02*
X133030000Y-131694300I0J87500D01*
G01*
G37*
G36*
G01*
X133030000Y-131194300D02*
X133030000Y-131019300D01*
G75*
G02*
X133117500Y-130931800I87500J0D01*
G01*
X133492500Y-130931800D01*
G75*
G02*
X133580000Y-131019300I0J-87500D01*
G01*
X133580000Y-131194300D01*
G75*
G02*
X133492500Y-131281800I-87500J0D01*
G01*
X133117500Y-131281800D01*
G75*
G02*
X133030000Y-131194300I0J87500D01*
G01*
G37*
G36*
G01*
X133030000Y-130694300D02*
X133030000Y-130519300D01*
G75*
G02*
X133117500Y-130431800I87500J0D01*
G01*
X133492500Y-130431800D01*
G75*
G02*
X133580000Y-130519300I0J-87500D01*
G01*
X133580000Y-130694300D01*
G75*
G02*
X133492500Y-130781800I-87500J0D01*
G01*
X133117500Y-130781800D01*
G75*
G02*
X133030000Y-130694300I0J87500D01*
G01*
G37*
G36*
G01*
X133030000Y-130194300D02*
X133030000Y-130019300D01*
G75*
G02*
X133117500Y-129931800I87500J0D01*
G01*
X133492500Y-129931800D01*
G75*
G02*
X133580000Y-130019300I0J-87500D01*
G01*
X133580000Y-130194300D01*
G75*
G02*
X133492500Y-130281800I-87500J0D01*
G01*
X133117500Y-130281800D01*
G75*
G02*
X133030000Y-130194300I0J87500D01*
G01*
G37*
G36*
G01*
X133030000Y-129694300D02*
X133030000Y-129519300D01*
G75*
G02*
X133117500Y-129431800I87500J0D01*
G01*
X133492500Y-129431800D01*
G75*
G02*
X133580000Y-129519300I0J-87500D01*
G01*
X133580000Y-129694300D01*
G75*
G02*
X133492500Y-129781800I-87500J0D01*
G01*
X133117500Y-129781800D01*
G75*
G02*
X133030000Y-129694300I0J87500D01*
G01*
G37*
G36*
G01*
X132405000Y-129569300D02*
X132405000Y-129194300D01*
G75*
G02*
X132492500Y-129106800I87500J0D01*
G01*
X132667500Y-129106800D01*
G75*
G02*
X132755000Y-129194300I0J-87500D01*
G01*
X132755000Y-129569300D01*
G75*
G02*
X132667500Y-129656800I-87500J0D01*
G01*
X132492500Y-129656800D01*
G75*
G02*
X132405000Y-129569300I0J87500D01*
G01*
G37*
G36*
G01*
X131905000Y-129569300D02*
X131905000Y-129194300D01*
G75*
G02*
X131992500Y-129106800I87500J0D01*
G01*
X132167500Y-129106800D01*
G75*
G02*
X132255000Y-129194300I0J-87500D01*
G01*
X132255000Y-129569300D01*
G75*
G02*
X132167500Y-129656800I-87500J0D01*
G01*
X131992500Y-129656800D01*
G75*
G02*
X131905000Y-129569300I0J87500D01*
G01*
G37*
G36*
G01*
X131405000Y-129569300D02*
X131405000Y-129194300D01*
G75*
G02*
X131492500Y-129106800I87500J0D01*
G01*
X131667500Y-129106800D01*
G75*
G02*
X131755000Y-129194300I0J-87500D01*
G01*
X131755000Y-129569300D01*
G75*
G02*
X131667500Y-129656800I-87500J0D01*
G01*
X131492500Y-129656800D01*
G75*
G02*
X131405000Y-129569300I0J87500D01*
G01*
G37*
D20*
X94956000Y-92646500D03*
X92456000Y-92646500D03*
X89956000Y-92646500D03*
X94956000Y-98158300D03*
X92456000Y-98158300D03*
X89956000Y-98158300D03*
M02*
