M48
; DRILL file {KiCad 6.0.7+dfsg-1~bpo11+1} date Tue Jan 24 09:36:58 2023
; FORMAT={-:-/ absolute / metric / decimal}
; #@! TF.CreationDate,2023-01-24T09:36:58+00:00
; #@! TF.GenerationSoftware,Kicad,Pcbnew,6.0.7+dfsg-1~bpo11+1
; #@! TF.FileFunction,Plated,1,2,PTH
FMAT,2
METRIC
; #@! TA.AperFunction,Plated,PTH,ViaDrill
T1C0.279
; #@! TA.AperFunction,Plated,PTH,ComponentDrill
T2C0.750
; #@! TA.AperFunction,Plated,PTH,ComponentDrill
T3C1.020
%
G90
G05
T1
X82.093Y-86.563
X82.169Y-139.344
X82.804Y-119.99
X84.023Y-166.878
X84.074Y-134.112
X85.649Y-114.148
X86.004Y-100.279
X87.681Y-135.814
X87.827Y-132.613
X89.51Y-120.802
X89.814Y-90.272
X90.139Y-94.457
X90.272Y-107.696
X91.008Y-137.541
X91.897Y-114.148
X91.897Y-120.802
X92.05Y-95.478
X92.405Y-90.373
X92.405Y-100.254
X93.243Y-133.807
X93.878Y-90.5
X93.98Y-86.258
X94.793Y-169.342
X94.894Y-120.802
X95.555Y-137.541
X95.758Y-107.696
X96.876Y-94.894
X97.307Y-91.262
X97.588Y-99.974
X98.323Y-93.167
X98.324Y-99.982
X98.349Y-107.696
X98.4Y-138.176
X99.314Y-167.081
X99.39Y-100.66
X99.822Y-92.1
X100.94Y-120.802
X101.194Y-89.408
X101.651Y-135.052
X103.302Y-86.411
X103.937Y-88.392
X105.82Y-91.122
X105.943Y-92.024
X105.943Y-93.294
X105.969Y-136.068
X106.389Y-93.938
X106.451Y-92.659
X106.731Y-89.408
X106.959Y-92.024
X106.959Y-97.917
X107.217Y-93.938
X109.499Y-107.772
X110.49Y-95.504
X110.871Y-170.917
X113.208Y-128.753
X114.173Y-92.05
X114.656Y-89.052
X114.656Y-90.754
X115.113Y-93.878
X115.468Y-91.796
X115.595Y-107.772
X115.976Y-92.634
X116.053Y-98.882
X118.415Y-86.309
X118.821Y-99.161
X119.329Y-166.98
X119.685Y-93.828
X119.913Y-100.025
X119.939Y-95.555
X120.548Y-87.198
X121.564Y-88.341
X122.834Y-107.772
X122.885Y-135.382
X124.536Y-133.096
X125.451Y-117.272
X127.102Y-169.545
X127.61Y-86.411
X128.829Y-99.085
X130.048Y-131.115
X130.734Y-132.766
X131.328Y-151.979
X131.521Y-132.766
X132.232Y-136.703
X133.35Y-133.35
X134.214Y-99.365
X134.214Y-106.985
X134.214Y-110.414
X134.417Y-91.745
X134.823Y-151.994
X135.179Y-165.252
X135.382Y-133.35
X135.433Y-149.758
X135.534Y-130.683
X135.687Y-143.408
X135.89Y-99.365
X136.144Y-152.806
X136.169Y-129.896
X136.627Y-99.365
X136.957Y-133.274
X137.058Y-130.708
X137.439Y-132.715
X137.513Y-137.922
X137.513Y-143.386
X137.643Y-151.181
X137.97Y-132.205
X138.379Y-106.521
X138.655Y-107.203
X138.836Y-166.827
X138.887Y-107.902
X139.217Y-108.56
X139.548Y-106.477
X139.725Y-151.79
X139.751Y-86.512
X139.852Y-123.85
X139.852Y-140.005
T2
X83.963Y-90.895
X85.963Y-90.895
T3
X83.109Y-106.096
X83.109Y-123.876
X85.649Y-106.096
X85.649Y-123.876
X88.189Y-106.096
X88.189Y-123.876
X90.729Y-106.096
X90.729Y-123.876
X93.269Y-106.096
X93.269Y-123.876
X95.809Y-106.096
X95.809Y-123.876
X98.349Y-106.096
X98.349Y-123.876
X100.889Y-106.096
X100.889Y-123.876
X103.429Y-106.096
X103.429Y-123.876
X105.969Y-106.096
X105.969Y-123.876
X108.509Y-106.096
X108.509Y-123.876
X111.049Y-106.096
X111.049Y-123.876
X113.589Y-106.096
X113.589Y-123.876
X116.129Y-106.096
X116.129Y-123.876
X118.669Y-106.096
X118.669Y-123.876
X121.209Y-106.096
X121.209Y-123.876
X123.749Y-106.096
X123.749Y-123.876
X126.289Y-106.096
X126.289Y-123.876
X128.829Y-106.096
X128.829Y-123.876
X131.139Y-112.446
X131.139Y-114.986
X131.139Y-117.526
X131.369Y-106.096
X131.369Y-123.876
T0
M30
